<?xml version="1.0" encoding="UTF-8"?>
<svg version="1.1" xmlns="http://www.w3.org/2000/svg" width="413" height="604">
<path d="M0 0 C5.20794742 11.45748433 2.39122577 24.27165033 0.5625 36.3125 C0.44052246 37.11864746 0.31854492 37.92479492 0.19287109 38.75537109 C-0.41840263 42.48247589 -0.97769673 45.73454926 -3 49 C-4.32 48.67 -5.64 48.34 -7 48 C-6.60275398 43.15359855 -6.09097701 38.38404203 -5.23046875 33.59765625 C-3.47131188 23.71123505 -2.64128674 15.03483407 -4 5 C-8.14795351 7.93304165 -10.61217097 11.05270448 -12.9375 15.5 C-13.27668457 16.14364502 -13.61586914 16.78729004 -13.96533203 17.45043945 C-21.36541691 32.19320375 -25.07986606 48.83374319 -25.25 65.25 C-25.25950684 65.99523926 -25.26901367 66.74047852 -25.27880859 67.50830078 C-25.24081163 73.8340916 -24.48686797 80.55176879 -21 86 C-17.89951072 87.55024464 -15.42105782 87.28992015 -12 87 C-9.2094183 85.10183458 -9.2094183 85.10183458 -7 83 C-6.34 83 -5.68 83 -5 83 C-4.59007812 82.12214844 -4.59007812 82.12214844 -4.171875 81.2265625 C-3.02935417 79.05577292 -1.76961411 77.29494256 -0.25 75.375 C3.23388548 70.79183026 6.16329893 66.00407307 9 61 C9.48194824 60.15236084 9.96389648 59.30472168 10.46044922 58.43139648 C14.87027813 50.18403451 17.08909578 41.85036318 19.125 32.8125 C23.04938977 15.64675282 23.04938977 15.64675282 27 8 C27.86625 6.2365625 27.86625 6.2365625 28.75 4.4375 C29.36875 3.2309375 29.36875 3.2309375 30 2 C31.98 2 33.96 2 36 2 C35.73561771 12.64739575 31.83615438 21.646161 26.875 30.9375 C23.21403377 38.01410999 21 45.99157012 21 54 C21.556875 53.46375 22.11375 52.9275 22.6875 52.375 C23.450625 51.92125 24.21375 51.4675 25 51 C27.75 51.8125 27.75 51.8125 30 53 C30.495 56.96 30.495 56.96 31 61 C32.95894361 60.88693303 32.95894361 60.88693303 35 60 C35.70105843 58.34750513 36.35800351 56.67632417 37 55 C39.86174037 50.55408193 42.17912731 47.28941025 47 45 C47.495 44.01 47.495 44.01 48 43 C50.65877957 43.36672822 51.79835472 43.79088638 53.6875 45.75 C55.11211469 48.19219662 55.61312661 50.2145116 56 53 C56.99 53 57.98 53 59 53 C59 52.34 59 51.68 59 51 C60.6875 48.8125 60.6875 48.8125 63 47 C65.75 47.25 65.75 47.25 68 48 C67.67 50.31 67.34 52.62 67 55 C67.598125 54.195625 68.19625 53.39125 68.8125 52.5625 C71 50 71 50 74 49 C76 51 76 51 76.1953125 53.1640625 C76.17210937 53.97617187 76.14890625 54.78828125 76.125 55.625 C76.10695313 56.44226563 76.08890625 57.25953125 76.0703125 58.1015625 C76.04710937 58.72804688 76.02390625 59.35453125 76 60 C81.65987832 54.31139133 85.46514873 48.72514584 88.7734375 41.40625 C90 39 90 39 92 38 C95.5 37.8125 95.5 37.8125 99 38 C99.66 38.66 100.32 39.32 101 40 C100.98252112 42.59269983 100.86231408 45.0525154 100.625 47.625 C100.56828125 48.33140625 100.5115625 49.0378125 100.453125 49.765625 C100.31159079 51.51121361 100.15702613 53.25573673 100 55 C101.90068438 53.778348 103.79533883 52.54731206 105.6875 51.3125 C106.74324219 50.62800781 107.79898438 49.94351563 108.88671875 49.23828125 C112.07690332 47.11784904 112.07690332 47.11784904 114.45703125 44.23046875 C117 42 117 42 120.8125 41.6875 C121.864375 41.790625 122.91625 41.89375 124 42 C124.14695313 41.175 124.29390625 40.35 124.4453125 39.5 C125.79178391 32.56644608 127.50514545 26.00006639 129.9375 19.375 C130.29835693 18.36373047 130.29835693 18.36373047 130.66650391 17.33203125 C132.16535813 13.39343621 133.78492927 10.73593492 137 8 C140 9 140 9 140.80859375 10.59375 C141.08895137 14.11824577 140.08844238 17.17018702 139.0625 20.5 C138.84086182 21.24628662 138.61922363 21.99257324 138.39086914 22.76147461 C136.87247809 27.69101761 135.02930001 32.39245545 132.98632812 37.12524414 C128.1124005 48.45122632 125.93026176 59.57089507 124.35375977 71.77368164 C124 74 124 74 123 77 C122.9698154 80.58765561 123.06675984 84.163578 123.16015625 87.75 C123 91 123 91 121 94 C120.01 94 119.02 94 118 94 C114.00629121 86.01258243 118.00448575 71.65741857 119 63 C118.23171875 63.50402344 117.4634375 64.00804687 116.671875 64.52734375 C114 66 114 66 111.25 65.5625 C109 64 109 64 108.1875 60.875 C108.125625 59.92625 108.06375 58.9775 108 58 C106.906875 58.598125 105.81375 59.19625 104.6875 59.8125 C104.07261719 60.14894531 103.45773438 60.48539062 102.82421875 60.83203125 C100.22166088 62.49833704 98.3629155 63.9411833 97.33984375 66.92602539 C97.20707031 67.64266357 97.07429687 68.35930176 96.9375 69.09765625 C96.7043811 70.29297974 96.7043811 70.29297974 96.46655273 71.51245117 C96.31259033 72.35396729 96.15862793 73.1954834 96 74.0625 C95.66059407 75.78966307 95.31817347 77.5162366 94.97265625 79.2421875 C94.72539795 80.4811377 94.72539795 80.4811377 94.47314453 81.74511719 C93.59583184 85.9261595 92.3865794 89.96351331 91 94 C90.78859375 94.65484375 90.5771875 95.3096875 90.359375 95.984375 C87.9256931 103.05903169 84.69912118 112.09647362 78 116 C74.4375 116.125 74.4375 116.125 71 115 C67.49205372 109.45518169 67.15817009 103.97422025 68.50390625 97.62109375 C71.82759406 85.48488512 78.5437845 72.81952262 88.5625 64.9375 C89.366875 64.298125 90.17125 63.65875 91 63 C91 62.01 91 61.02 91 60 C90.2575 60.165 89.515 60.33 88.75 60.5 C86 61 86 61 82 61 C81.731875 61.61875 81.46375 62.2375 81.1875 62.875 C80 65 80 65 77 67 C74.4375 67.25 74.4375 67.25 72 67 C71.34 66.34 70.68 65.68 70 65 C70 63.68 70 62.36 70 61 C69.01 61.66 68.02 62.32 67 63 C65 62.875 65 62.875 63 62 C61.25 59.9375 61.25 59.9375 60 58 C56.56206661 58.18129815 56.56206661 58.18129815 53 59 C51.8499169 60.96672915 51.8499169 60.96672915 51 63 C48.6875 63.9375 48.6875 63.9375 46 64 C43.3125 62.5625 43.3125 62.5625 41 61 C40.34 61 39.68 61 39 61 C38.731875 61.61875 38.46375 62.2375 38.1875 62.875 C37 65 37 65 34 67 C30.9375 66.8125 30.9375 66.8125 28 66 C26.0549 63.08235 25.54723683 61.37462715 25 58 C20.97490955 63.86513179 18.54953664 69.58599858 16.30859375 76.33984375 C15 79 15 79 12.91015625 79.94140625 C12.27980469 79.96074219 11.64945313 79.98007812 11 80 C10 79 10 79 9.90234375 77.15234375 C9.93489583 75.1015625 9.96744792 73.05078125 10 71 C9.49210937 71.71285156 8.98421875 72.42570312 8.4609375 73.16015625 C6.33044941 76.12448705 4.17316063 79.06682691 2 82 C1.48824219 82.69738281 0.97648437 83.39476562 0.44921875 84.11328125 C-3.86209746 89.59047452 -9.25120634 93.33844818 -16.1875 94.5625 C-21.06905475 93.58618905 -23.9699177 91.14453589 -27.25 87.5 C-35.88647577 70.22704845 -30.62210399 47.22623139 -24.97338867 29.73193359 C-17.16618601 6.41126837 -17.16618601 6.41126837 -8.48828125 0.203125 C-5.27708449 -1.34954156 -3.39143502 -0.8675764 0 0 Z M94 43 C92.23513282 44.76975869 92.23513282 44.76975869 91 47 C91.33 47.99 91.66 48.98 92 50 C93.32 47.69 94.64 45.38 96 43 C95.34 43 94.68 43 94 43 Z M119 47 C115.29525661 50.82051662 114.41279824 53.73682241 114 59 C116.94751667 56.25576034 119.22773678 53.63780345 121 50 C120.67 49.01 120.34 48.02 120 47 C119.67 47 119.34 47 119 47 Z M90 50 C91 52 91 52 91 52 Z M45 54 C45.33 55.32 45.66 56.64 46 58 C46.66 58 47.32 58 48 58 C47.34 56.68 46.68 55.36 46 54 C45.67 54 45.34 54 45 54 Z M90 71 C80.82265673 79.78681803 73.34295623 91.80544754 72.83984375 104.765625 C72.99673128 106.95439733 73.38729793 108.89655036 74 111 C79.62004669 108.60671741 81.67457638 103.99555449 84.06640625 98.58984375 C86.21394966 93.00623087 87.81106283 87.28427856 89.3125 81.5 C89.49627197 80.80519531 89.68004395 80.11039063 89.86938477 79.39453125 C90.69537716 76.06933003 91.10573693 74.3172108 90 71 Z " fill="#96883A" transform="translate(103,289)"/>
<path d="M0 0 C2.83203125 2.046875 2.83203125 2.046875 5 4 C5 4.66 5 5.32 5 6 C5.99 6.33 6.98 6.66 8 7 C9.37703653 9.19972003 10.54796801 11.30787231 11.6875 13.625 C12.00783203 14.22957031 12.32816406 14.83414062 12.65820312 15.45703125 C14.82893329 19.79849157 15.32801043 23.18505438 15 28 C16.485 28.495 16.485 28.495 18 29 C20.97182186 33.98841526 21.46411964 37.90457257 20.62109375 43.640625 C19.64870313 47.33448624 17.99449655 49.74051624 15 52 C12.51940326 53.37259686 10.00367815 54.58964183 7.4296875 55.77734375 C4.12935528 57.43812186 1.76337967 59.55794354 -1 62 C-5.38949217 65.22328023 -9.55364852 65.79650377 -14.8125 66.5 C-20.20153862 67.23178898 -25.03104723 68.21893147 -30.08666992 70.25097656 C-33.08019723 71.42287165 -36.15632765 72.25958945 -39.25 73.125 C-40.43078125 73.45757812 -41.6115625 73.79015625 -42.828125 74.1328125 C-45.21379251 74.78505165 -47.59966563 75.40609613 -50 76 C-50.03810791 76.58265625 -50.07621582 77.1653125 -50.11547852 77.765625 C-50.67914362 84.73507346 -52.15185285 91.25136713 -53.9375 98 C-55.65604063 104.58982975 -57.27182293 111.1506785 -58.55981445 117.83886719 C-59.09903196 120.48620683 -59.81519388 123.04834417 -60.625 125.625 C-60.88539063 126.46289062 -61.14578125 127.30078125 -61.4140625 128.1640625 C-61.70410156 129.07285156 -61.70410156 129.07285156 -62 130 C-63.32 130 -64.64 130 -66 130 C-66 127.69 -66 125.38 -66 123 C-64.515 122.505 -64.515 122.505 -63 122 C-62.90203125 121.28199219 -62.8040625 120.56398438 -62.703125 119.82421875 C-60.66548804 105.71885257 -57.63035199 91.77883596 -54 78 C-55.77111844 78.47811177 -57.54188483 78.9575278 -59.3125 79.4375 C-60.29863281 79.70433594 -61.28476562 79.97117187 -62.30078125 80.24609375 C-64.21517526 80.78079425 -66.11433615 81.37144538 -68 82 C-68 82.66 -68 83.32 -68 84 C-69.32 83.67 -70.64 83.34 -72 83 C-72 82.01 -72 81.02 -72 80 C-66.30490523 76.41595004 -60.60860753 74.38527972 -54.1875 72.4375 C-53.25357422 72.14681641 -52.31964844 71.85613281 -51.35742188 71.55664062 C-45.25106446 69.66244093 -39.12640502 67.82816794 -33 66 C-33.86625 65.37351562 -34.7325 64.74703125 -35.625 64.1015625 C-36.75024843 63.27638032 -37.87523499 62.45084098 -39 61.625 C-39.57234375 61.2125 -40.1446875 60.8 -40.734375 60.375 C-42.19315312 59.29828281 -43.60100976 58.15333422 -45 57 C-45 56.34 -45 55.68 -45 55 C-51.05537446 56.54904928 -53.8172049 59.44233357 -57.796875 64.10546875 C-58.73273438 65.19794922 -58.73273438 65.19794922 -59.6875 66.3125 C-60.26886719 67.00988281 -60.85023438 67.70726562 -61.44921875 68.42578125 C-61.96097656 68.94527344 -62.47273438 69.46476562 -63 70 C-63.66 70 -64.32 70 -65 70 C-65 70.66 -65 71.32 -65 72 C-67.86120256 73.43060128 -69.84010585 73.38692581 -73 73 C-75.5102231 70.23875459 -75.96396275 68.32433528 -76.375 64.625 C-75.94268252 60.445931 -74.83677344 57.75007911 -73 54 C-71.68 54.66 -70.36 55.32 -69 56 C-69 59.63 -69 63.26 -69 67 C-64.66460345 63.69684072 -61.58436034 60.35695259 -58.4921875 55.8671875 C-56.84843944 53.81035092 -55.20771259 52.42747681 -53 51 C-52.34 51 -51.68 51 -51 51 C-51.433125 50.28263672 -51.433125 50.28263672 -51.875 49.55078125 C-56.706095 39.93891517 -57.13013373 26.64572543 -53.859375 16.44140625 C-52.43066291 13.73061304 -50.89090687 11.40621174 -49 9 C-48.55527344 8.34128906 -48.11054688 7.68257813 -47.65234375 7.00390625 C-36.75425375 -7.77047233 -14.82743331 -8.62852168 0 0 Z M-36 3 C-36 3.66 -36 4.32 -36 5 C-36.804375 5.268125 -37.60875 5.53625 -38.4375 5.8125 C-39.283125 6.204375 -40.12875 6.59625 -41 7 C-41.33 7.99 -41.66 8.98 -42 10 C-42.66 10 -43.32 10 -44 10 C-45.76486718 11.76975869 -45.76486718 11.76975869 -47 14 C-46.67 14.99 -46.34 15.98 -46 17 C-44.68225804 17.39044206 -43.34332728 17.70955086 -42 18 C-41.13375 18.474375 -40.2675 18.94875 -39.375 19.4375 C-32.44248847 22.64699608 -25.53699202 23.13458914 -18 23 C-17.34 23.33 -16.68 23.66 -16 24 C-15.401875 23.360625 -14.80375 22.72125 -14.1875 22.0625 C-12 20 -12 20 -9 19 C-9.66 21.31 -10.32 23.62 -11 26 C-10.34 25.67 -9.68 25.34 -9 25 C-7.55151418 24.91657841 -6.09929131 24.89267139 -4.6484375 24.90234375 C-3.37226563 24.90717773 -3.37226563 24.90717773 -2.0703125 24.91210938 C-1.18085938 24.92048828 -0.29140625 24.92886719 0.625 24.9375 C1.5221875 24.94201172 2.419375 24.94652344 3.34375 24.95117188 C5.56256648 24.96297409 7.78125018 24.97943845 10 25 C8.91507417 17.12298641 6.03384117 11.33090499 -0.125 6.1875 C-6.34899425 1.73439263 -13.98564277 -1.79821414 -21.80859375 -1.40625 C-26.69668244 -0.50008026 -31.35412167 1.26553876 -36 3 Z M-48 17 C-51.97229517 25.77215184 -52.21361207 33.84465636 -48.94921875 42.9296875 C-48.63597656 43.61289062 -48.32273437 44.29609375 -48 45 C-47.68490479 45.8561792 -47.36980957 46.7123584 -47.04516602 47.59448242 C-45.29884129 50.13054884 -45.29884129 50.13054884 -43.0756073 50.45257568 C-40.48019194 50.61509852 -37.92816451 50.61349605 -35.328125 50.55859375 C-34.37234558 50.55626236 -33.41656616 50.55393097 -32.43182373 50.55152893 C-30.40758356 50.54178094 -28.38337112 50.51996975 -26.359375 50.48706055 C-23.2756261 50.43790846 -20.19347917 50.42559481 -17.109375 50.41992188 C-15.14060819 50.4058249 -13.17185514 50.38961658 -11.203125 50.37109375 C-10.28621887 50.36573105 -9.36931274 50.36036835 -8.42462158 50.35484314 C-3.26519375 50.26010822 1.14827492 49.817094 6 48 C7.62975491 45.96908801 7.62975491 45.96908801 8.375 43.5 C8.81972656 42.30890625 8.81972656 42.30890625 9.2734375 41.09375 C9.51320313 40.4028125 9.75296875 39.711875 10 39 C10.33 38.34 10.66 37.68 11 37 C11.33333333 34 11.33333333 34 11 31 C8.03651571 29.0243438 7.31979627 28.73623141 3.98828125 28.5859375 C3.23095703 28.54726563 2.47363281 28.50859375 1.69335938 28.46875 C0.51483398 28.42234375 0.51483398 28.42234375 -0.6875 28.375 C-1.88342773 28.31699219 -1.88342773 28.31699219 -3.10351562 28.2578125 C-5.06863475 28.16367506 -7.0342854 28.08075368 -9 28 C-9.33 29.32 -9.66 30.64 -10 32 C-5.71 32.33 -1.42 32.66 3 33 C2.34 34.32 1.68 35.64 1 37 C-4.21919516 36.30410731 -9.37524139 35.39188817 -14.546875 34.40234375 C-17.07909086 33.91907486 -17.07909086 33.91907486 -20 34 C-20.33 33.34 -20.66 32.68 -21 32 C-25.17546911 31.26746156 -29.14137535 30.9535617 -33.375 31 C-37 31 -37 31 -39 30 C-39.0825 28.906875 -39.165 27.81375 -39.25 26.6875 C-39.63139863 22.77735365 -39.63139863 22.77735365 -42.9375 20.6875 C-43.948125 20.130625 -44.95875 19.57375 -46 19 C-46.66 18.34 -47.32 17.68 -48 17 Z M14 40 C15 43 15 43 15 43 Z M-39 55 C-33.71899669 59.94029342 -27.62016588 62.12642057 -20.4375 62.3125 C-14.4204782 62.08107608 -8.58887251 61.20646647 -4 57 C-9.08464099 56.20802058 -14.11328946 55.72206126 -19.25 55.4375 C-20.35782837 55.37381226 -20.35782837 55.37381226 -21.48803711 55.30883789 C-27.32830285 54.99282133 -33.15126723 54.88630973 -39 55 Z " fill="#8F853A" transform="translate(342,281)"/>
<path d="M0 0 C0.66 0 1.32 0 2 0 C3.91805963 3.83611925 3.67379862 8.73305084 3.98632812 12.99609375 C4.53199132 18.81972038 6.12424356 22.90180298 9 28 C10.98 28 12.96 28 15 28 C15.495 29.485 15.495 29.485 16 31 C18.10584438 31.80563638 18.10584438 31.80563638 20.5625 32.1875 C21.38878906 32.34605469 22.21507812 32.50460937 23.06640625 32.66796875 C23.70449219 32.77753906 24.34257812 32.88710938 25 33 C25 33.33 25 33.66 25 34 C22.36 34.33 19.72 34.66 17 35 C25.26977575 40.02672644 32.89740887 41.38681311 42.4375 39.0625 C45.80295043 38.17057789 45.80295043 38.17057789 48 37 C46.35 36.67 44.7 36.34 43 36 C43 35.67 43 35.34 43 35 C52.41002278 34.81548975 52.41002278 34.81548975 57 36 C55.77629991 39.80706696 53.47768383 41.21230968 50.06616211 43.09033203 C46.52086181 44.65121929 42.88143048 45.0823138 39.0625 45.5625 C33.70822946 46.26641173 28.93828416 47.22997277 23.91772461 49.2487793 C20.92284238 50.42194959 17.84533393 51.25912465 14.75 52.125 C13.56921875 52.45757812 12.3884375 52.79015625 11.171875 53.1328125 C8.78620749 53.78505165 6.40033437 54.40609613 4 55 C3.96189209 55.58265625 3.92378418 56.1653125 3.88452148 56.765625 C3.32085638 63.73507346 1.84814715 70.25136713 0.0625 77 C-1.65604063 83.58982975 -3.27182293 90.1506785 -4.55981445 96.83886719 C-5.09903196 99.48620683 -5.81519388 102.04834417 -6.625 104.625 C-6.88539063 105.46289062 -7.14578125 106.30078125 -7.4140625 107.1640625 C-7.60742188 107.76992188 -7.80078125 108.37578125 -8 109 C-9.32 109 -10.64 109 -12 109 C-12 106.69 -12 104.38 -12 102 C-10.515 101.505 -10.515 101.505 -9 101 C-8.90203125 100.28199219 -8.8040625 99.56398438 -8.703125 98.82421875 C-6.66548804 84.71885257 -3.63035199 70.77883596 0 57 C-1.77111844 57.47811177 -3.54188483 57.9575278 -5.3125 58.4375 C-6.29863281 58.70433594 -7.28476562 58.97117187 -8.30078125 59.24609375 C-10.21517526 59.78079425 -12.11433615 60.37144538 -14 61 C-14 61.66 -14 62.32 -14 63 C-15.32 62.67 -16.64 62.34 -18 62 C-18 61.01 -18 60.02 -18 59 C-12.30490523 55.41595004 -6.60860753 53.38527972 -0.1875 51.4375 C0.74642578 51.14681641 1.68035156 50.85613281 2.64257812 50.55664062 C8.74893554 48.66244093 14.87359498 46.82816794 21 45 C20.13375 44.37351562 19.2675 43.74703125 18.375 43.1015625 C17.24975157 42.27638032 16.12476501 41.45084098 15 40.625 C14.42765625 40.2125 13.8553125 39.8 13.265625 39.375 C11.80684688 38.29828281 10.39899024 37.15333422 9 36 C9 35.34 9 34.68 9 34 C2.94462554 35.54904928 0.1827951 38.44233357 -3.796875 43.10546875 C-4.42078125 43.83378906 -5.0446875 44.56210937 -5.6875 45.3125 C-6.26886719 46.00988281 -6.85023438 46.70726562 -7.44921875 47.42578125 C-7.96097656 47.94527344 -8.47273438 48.46476562 -9 49 C-9.66 49 -10.32 49 -11 49 C-11 49.66 -11 50.32 -11 51 C-13.86120256 52.43060128 -15.84010585 52.38692581 -19 52 C-21.5102231 49.23875459 -21.96396275 47.32433528 -22.375 43.625 C-21.94268252 39.445931 -20.83677344 36.75007911 -19 33 C-17.68 33.66 -16.36 34.32 -15 35 C-15 38.63 -15 42.26 -15 46 C-10.66460345 42.69684072 -7.58436034 39.35695259 -4.4921875 34.8671875 C-2.84843944 32.81035092 -1.20771259 31.42747681 1 30 C1.66 30 2.32 30 3 30 C2.50886719 28.9171875 2.01773437 27.834375 1.51171875 26.71875 C-0.50766006 21.33373983 -0.33293363 16.18309877 -0.1875 10.5 C-0.17396484 9.48679687 -0.16042969 8.47359375 -0.14648438 7.4296875 C-0.11143063 4.95255596 -0.06229764 2.47657073 0 0 Z " fill="#897E39" transform="translate(288,302)"/>
<path d="M0 0 C1.67542976 0.28604898 3.34385343 0.61781233 5 1 C5.41628509 8.40987455 3.31819857 13.69347409 -0.0625 20.0625 C-4.7374449 29.09576382 -7.1355774 38.33428256 -9.375 48.1875 C-9.61901047 49.25582565 -9.61901047 49.25582565 -9.86795044 50.34573364 C-13.96344134 68.23963811 -13.96344134 68.23963811 -16.625 86.375 C-17 90 -17 90 -18 92 C-19.32 92 -20.64 92 -22 92 C-23.1852306 88.47015434 -22.83595405 85.78324223 -22.22265625 82.140625 C-22.03896484 81.02558594 -21.85527344 79.91054688 -21.66601562 78.76171875 C-21.46685547 77.60285156 -21.26769531 76.44398438 -21.0625 75.25 C-20.86720703 74.07566406 -20.67191406 72.90132813 -20.47070312 71.69140625 C-19.98763371 68.79298975 -19.49714131 65.89603033 -19 63 C-20.10601562 63.21140625 -21.21203125 63.4228125 -22.3515625 63.640625 C-23.55554688 63.75921875 -24.75953125 63.8778125 -26 64 C-28.70651697 61.43593129 -29.82395916 59.52812251 -31 56 C-31.721875 56.845625 -32.44375 57.69125 -33.1875 58.5625 C-36 61 -36 61 -38.8125 60.8125 C-39.534375 60.544375 -40.25625 60.27625 -41 60 C-41.6958222 52.59335921 -40.82402423 46.89038748 -36 41 C-33.27594055 39.27189114 -32.17646599 38.99647068 -28.875 39.0625 C-26 40 -26 40 -24.625 42.5625 C-24.41875 43.366875 -24.2125 44.17125 -24 45 C-24.33 45.33 -24.66 45.66 -25 46 C-25.21326403 51.6047709 -25.21326403 51.6047709 -24 57 C-20.45546832 55.58218733 -19.1426509 54.10283462 -17.375 50.75 C-16.76785156 49.62851562 -16.76785156 49.62851562 -16.1484375 48.484375 C-13.82367984 43.45530741 -12.6203356 38.43336139 -11.625 33 C-6.51237109 6.51237109 -6.51237109 6.51237109 0 0 Z M-32 45 C-32.66 45.66 -33.32 46.32 -34 47 C-33.67 47.99 -33.34 48.98 -33 50 C-33 49.34 -33 48.68 -33 48 C-32.34 48 -31.68 48 -31 48 C-30.67 47.01 -30.34 46.02 -30 45 C-30.66 45 -31.32 45 -32 45 Z " fill="#90823C" transform="translate(273,291)"/>
<path d="M0 0 C1.32 0.33 2.64 0.66 4 1 C3.43194851 5.27300952 2.39161038 8.76348362 0.625 12.6875 C-4.73539144 25.29747527 -6.67352967 38.56903266 -9 52 C-10.32 52 -11.64 52 -13 52 C-12.34 47.05 -11.68 42.1 -11 37 C-11.99 37.495 -11.99 37.495 -13 38 C-16 38.25 -16 38.25 -19 38 C-21 35 -21 35 -21 32 C-22.65 32 -24.3 32 -26 32 C-26.61875 33.3921875 -26.61875 33.3921875 -27.25 34.8125 C-28.95736281 37.9223394 -29.85767258 39.42883629 -33 41 C-35.75 40.6875 -35.75 40.6875 -38 40 C-38 39.01 -38 38.02 -38 37 C-39.65 36.67 -41.3 36.34 -43 36 C-43 35.34 -43 34.68 -43 34 C-46.465 34.495 -46.465 34.495 -50 35 C-50.061875 35.5775 -50.12375 36.155 -50.1875 36.75 C-51.32027301 39.88690987 -53.34197595 41.09167504 -56 43 C-56.99 42.34 -57.98 41.68 -59 41 C-58.67 37.37 -58.34 33.74 -58 30 C-59.65 29.67 -61.3 29.34 -63 29 C-64.0111514 25.78270009 -64.17213761 24.39863447 -62.8125 21.25 C-61 19 -61 19 -58.8125 18.1875 C-58.214375 18.125625 -57.61625 18.06375 -57 18 C-56.67 19.65 -56.34 21.3 -56 23 C-55.01 23.33 -54.02 23.66 -53 24 C-53.33 27.3 -53.66 30.6 -54 34 C-50.75267068 32.37633534 -50.29844864 29.24612161 -49 26 C-48.34 26 -47.68 26 -47 26 C-47 25.01 -47 24.02 -47 23 C-44.625 22.375 -44.625 22.375 -42 22 C-40 24 -40 24 -39.875 27.625 C-39.91625 28.73875 -39.9575 29.8525 -40 31 C-39.34 31 -38.68 31 -38 31 C-36.68 28.36 -35.36 25.72 -34 23 C-33.34 23 -32.68 23 -32 23 C-31.85714286 30.42857143 -31.85714286 30.42857143 -33 34 C-30.12369086 31.12369086 -29.17363545 27.77239966 -28 24 C-27.01 24 -26.02 24 -25 24 C-24.505 25.98 -24.505 25.98 -24 28 C-19.96615872 25.92856799 -18.07143201 24.03384128 -16 20 C-14.35 20.33 -12.7 20.66 -11 21 C-12.12849932 24.90634379 -13.08735814 27.21399474 -16 30 C-16.37396858 31.3225114 -16.71202981 32.65613912 -17 34 C-15.87105124 33.06725891 -14.74699124 32.12859878 -13.625 31.1875 C-12.99851562 30.66542969 -12.37203125 30.14335937 -11.7265625 29.60546875 C-8.74293318 26.8310985 -7.75275716 24.46356234 -7.125 20.5625 C-5.81119459 13.47212159 -4.02807635 6.04211453 0 0 Z " fill="#C0C0C0" transform="translate(353,353)"/>
<path d="M0 0 C1.98 0 3.96 0 6 0 C5.73561771 10.64739575 1.83615438 19.646161 -3.125 28.9375 C-6.45102533 35.37579581 -7.80447512 41.89565791 -9 49 C-9.20238281 50.07121094 -9.40476562 51.14242187 -9.61328125 52.24609375 C-10.16893621 55.00396064 -10.16893621 55.00396064 -9.375 57.6875 C-9.25125 58.450625 -9.1275 59.21375 -9 60 C-10.4375 61.8125 -10.4375 61.8125 -12 63 C-12 62.34 -12 61.68 -12 61 C-12.66 61 -13.32 61 -14 61 C-14.33 61.99 -14.66 62.98 -15 64 C-16.32 64 -17.64 64 -19 64 C-19 64.99 -19 65.98 -19 67 C-20.32 66.67 -21.64 66.34 -23 66 C-22.39641104 61.67051607 -20.79217696 58.52188368 -18.69921875 54.70703125 C-14.66092531 46.98993961 -12.68886119 39.14552834 -10.8125 30.6875 C-6.94964698 13.64550138 -6.94964698 13.64550138 -3 6 C-2.13375 4.2365625 -2.13375 4.2365625 -1.25 2.4375 C-0.8375 1.633125 -0.425 0.82875 0 0 Z " fill="#A99A40" transform="translate(133,291)"/>
<path d="M0 0 C1.98 0.66 3.96 1.32 6 2 C7.08130696 8.47481394 7.55113006 13.15781829 4 19 C0.00769241 22.99230759 -3.82927383 25.01125917 -9 27 C-9.99 27.495 -9.99 27.495 -11 28 C-12.67060268 27.68698948 -14.33669778 27.34973505 -16 27 C-18.04477537 26.86816669 -20.09244562 26.77746572 -22.140625 26.71875 C-23.29304688 26.68136719 -24.44546875 26.64398438 -25.6328125 26.60546875 C-28.0598826 26.53470105 -30.48696619 26.46439436 -32.9140625 26.39453125 C-34.06132812 26.35714844 -35.20859375 26.31976563 -36.390625 26.28125 C-37.44282227 26.25095703 -38.49501953 26.22066406 -39.57910156 26.18945312 C-42 26 -42 26 -43 25 C-45.31469584 24.5103528 -47.63794836 24.10099 -49.96875 23.6953125 C-50.6390625 23.46585937 -51.309375 23.23640625 -52 23 C-52.33 22.01 -52.66 21.02 -53 20 C-51.8855249 19.98018066 -50.7710498 19.96036133 -49.62280273 19.93994141 C-45.46470592 19.86353052 -41.30694294 19.77486931 -37.14916992 19.68261719 C-35.35398986 19.64447345 -33.55873717 19.60959578 -31.76342773 19.578125 C-29.17405341 19.53215553 -26.58517281 19.47421581 -23.99609375 19.4140625 C-23.20101913 19.40251129 -22.40594452 19.39096008 -21.58677673 19.37905884 C-16.72986432 19.25212152 -12.57882269 18.67742369 -8 17 C-7.67 16.34 -7.34 15.68 -7 15 C-6.34 15 -5.68 15 -5 15 C-5 14.34 -5 13.68 -5 13 C-4.01 13.33 -3.02 13.66 -2 14 C-2 14.66 -2 15.32 -2 16 C-1.34 16 -0.68 16 0 16 C1.69057861 10.71694183 1.29188056 5.32900731 0 0 Z " fill="#9F903B" transform="translate(356,311)"/>
<path d="M0 0 C2.475 0.495 2.475 0.495 5 1 C5 1.99 5 2.98 5 4 C1.58364488 4.9802559 -1.83313745 5.95901446 -5.25 6.9375 C-6.21808594 7.21529297 -7.18617188 7.49308594 -8.18359375 7.77929688 C-9.11816406 8.04677734 -10.05273438 8.31425781 -11.015625 8.58984375 C-11.87446289 8.83597412 -12.73330078 9.08210449 -13.61816406 9.33569336 C-15.73808984 9.92695187 -17.86199846 10.47848343 -20 11 C-20.05716187 11.87398438 -20.05716187 11.87398438 -20.11547852 12.765625 C-20.67914362 19.73507346 -22.15185285 26.25136713 -23.9375 33 C-25.65604063 39.58982975 -27.27182293 46.1506785 -28.55981445 52.83886719 C-29.09903196 55.48620683 -29.81519388 58.04834417 -30.625 60.625 C-30.88539063 61.46289062 -31.14578125 62.30078125 -31.4140625 63.1640625 C-31.60742188 63.76992188 -31.80078125 64.37578125 -32 65 C-33.32 65 -34.64 65 -36 65 C-36 62.69 -36 60.38 -36 58 C-34.515 57.505 -34.515 57.505 -33 57 C-32.85304688 55.92298828 -32.85304688 55.92298828 -32.703125 54.82421875 C-30.66548804 40.71885257 -27.63035199 26.77883596 -24 13 C-25.77111844 13.47811177 -27.54188483 13.9575278 -29.3125 14.4375 C-30.29863281 14.70433594 -31.28476562 14.97117187 -32.30078125 15.24609375 C-34.21517526 15.78079425 -36.11433615 16.37144538 -38 17 C-38 17.66 -38 18.32 -38 19 C-39.32 18.67 -40.64 18.34 -42 18 C-42 17.01 -42 16.02 -42 15 C-36.23786913 11.36160304 -30.44087316 9.34123724 -23.9375 7.375 C-22.0090475 6.77886279 -20.08066023 6.18251454 -18.15234375 5.5859375 C-17.25386719 5.31217285 -16.35539062 5.0384082 -15.4296875 4.75634766 C-13.4597775 4.14312608 -11.50615583 3.47774801 -9.55859375 2.796875 C-6.30768362 1.7843778 -3.38229776 1.86470809 0 2 C0 1.34 0 0.68 0 0 Z " fill="#ABB0AB" transform="translate(312,346)"/>
<path d="M0 0 C0.99 0.66 1.98 1.32 3 2 C5.62531524 2.16713569 5.62531524 2.16713569 8 2 C8.33 2.99 8.66 3.98 9 5 C11.10584438 5.80563638 11.10584438 5.80563638 13.5625 6.1875 C14.38878906 6.34605469 15.21507812 6.50460937 16.06640625 6.66796875 C16.70449219 6.77753906 17.34257812 6.88710938 18 7 C18 7.33 18 7.66 18 8 C15.36 8.33 12.72 8.66 10 9 C18.26977575 14.02672644 25.89740887 15.38681311 35.4375 13.0625 C38.80295043 12.17057789 38.80295043 12.17057789 41 11 C38.525 10.505 38.525 10.505 36 10 C36 9.67 36 9.34 36 9 C45.41002278 8.81548975 45.41002278 8.81548975 50 10 C48.78619822 13.7762722 46.51958177 15.21139488 43.13256836 17.07714844 C39.26006151 18.75294419 35.22076639 19.21242944 31.0625 19.75 C29.75055664 19.93755859 29.75055664 19.93755859 28.41210938 20.12890625 C26.27655274 20.43231867 24.13848965 20.71800136 22 21 C22 20.34 22 19.68 22 19 C20.35 18.67 18.7 18.34 17 18 C17 18.66 17 19.32 17 20 C13.41242129 18.80414043 10.79529665 16.80750242 7.8125 14.5625 C7.25369141 14.15451172 6.69488281 13.74652344 6.11914062 13.32617188 C4.70626453 12.26867121 3.34801815 11.13902309 2 10 C2 9.34 2 8.68 2 8 C0.35 8 -1.3 8 -3 8 C-2.67 7.01 -2.34 6.02 -2 5 C-1.34 4.67 -0.68 4.34 0 4 C0 2.68 0 1.36 0 0 Z " fill="#938835" transform="translate(295,328)"/>
<path d="M0 0 C1.375 2.5625 1.375 2.5625 2 5 C1.67 5.33 1.34 5.66 1 6 C0.78673597 11.6047709 0.78673597 11.6047709 2 17 C3.32 16.67 4.64 16.34 6 16 C7.5625 17.8125 7.5625 17.8125 9 20 C8.67 20.99 8.34 21.98 8 23 C2.7728642 24.13254609 2.7728642 24.13254609 0 24 C-2.77382398 21.43954709 -3.81133642 19.56599073 -5 16 C-5.721875 16.845625 -6.44375 17.69125 -7.1875 18.5625 C-10 21 -10 21 -12.8125 20.8125 C-13.534375 20.544375 -14.25625 20.27625 -15 20 C-15.6958222 12.59335921 -14.82402423 6.89038748 -10 1 C-6.40498604 -1.28063138 -4.08317919 -1.33147148 0 0 Z M-6 5 C-6.66 5.66 -7.32 6.32 -8 7 C-7.67 7.99 -7.34 8.98 -7 10 C-7 9.34 -7 8.68 -7 8 C-6.34 8 -5.68 8 -5 8 C-4.67 7.01 -4.34 6.02 -4 5 C-4.66 5 -5.32 5 -6 5 Z " fill="#8E833B" transform="translate(247,331)"/>
<path d="M0 0 C1.32 0.33 2.64 0.66 4 1 C2.25192871 6.46737191 0.34205919 11.75824848 -2 17 C-3.32 16.67 -4.64 16.34 -6 16 C-6 13.36 -6 10.72 -6 8 C-6.50789063 8.71285156 -7.01578125 9.42570312 -7.5390625 10.16015625 C-9.66955059 13.12448705 -11.82683937 16.06682691 -14 19 C-14.51175781 19.69738281 -15.02351563 20.39476562 -15.55078125 21.11328125 C-19.21659119 25.77040881 -23.47274454 28.81274383 -29 31 C-32.5625 31.3125 -32.5625 31.3125 -35 31 C-34.360625 30.71125 -33.72125 30.4225 -33.0625 30.125 C-30.84793921 29.17176549 -30.84793921 29.17176549 -30 27 C-31.98 26.67 -33.96 26.34 -36 26 C-35.67 25.34 -35.34 24.68 -35 24 C-33.948125 24.0825 -32.89625 24.165 -31.8125 24.25 C-27.4201352 23.96197608 -26.16908922 22.897453 -23 20 C-22.34 20 -21.68 20 -21 20 C-20.72929688 19.4225 -20.45859375 18.845 -20.1796875 18.25 C-17.3813903 12.91285038 -13.41823187 8.07836788 -9 4 C-7.68 4.66 -6.36 5.32 -5 6 C-5 5.01 -5 4.02 -5 3 C-4.360625 2.87625 -3.72125 2.7525 -3.0625 2.625 C-2.381875 2.41875 -1.70125 2.2125 -1 2 C-0.67 1.34 -0.34 0.68 0 0 Z " fill="#958738" transform="translate(119,352)"/>
<path d="M0 0 C0.99 0.33 1.98 0.66 3 1 C3 2.32 3 3.64 3 5 C3.99 5.33 4.98 5.66 6 6 C5.67 9.3 5.34 12.6 5 16 C8.24732932 14.37633534 8.70155136 11.24612161 10 8 C10.66 8 11.32 8 12 8 C12 7.01 12 6.02 12 5 C14.375 4.375 14.375 4.375 17 4 C19 6 19 6 19 9 C18.34 9 17.68 9 17 9 C17.33 11.31 17.66 13.62 18 16 C15.03 16.33 12.06 16.66 9 17 C8.67 18.32 8.34 19.64 8 21 C5.4375 23.25 5.4375 23.25 3 25 C2.01 24.34 1.02 23.68 0 23 C0.33 19.37 0.66 15.74 1 12 C-0.65 11.67 -2.3 11.34 -4 11 C-5.03321725 7.71249056 -5.20141923 6.42202124 -3.6875 3.25 C-2 1 -2 1 0 0 Z " fill="#E7E9E8" transform="translate(294,371)"/>
<path d="M0 0 C7 0 14 0 21 0 C21 0.33 21 0.66 21 1 C18.36 1.33 15.72 1.66 13 2 C17.29 2.99 21.58 3.98 26 5 C26.33 4.01 26.66 3.02 27 2 C27 2.66 27 3.32 27 4 C27.99 4.33 28.98 4.66 30 5 C30.495 6.485 30.495 6.485 31 8 C29.68 7.67 28.36 7.34 27 7 C27.2475 7.7734375 27.2475 7.7734375 27.5 8.5625 C28.48874992 13.38265584 28.71498943 17.75782901 26 22 C24 22 24 22 22.375 20.5 C21.92125 20.005 21.4675 19.51 21 19 C20.67 19.66 20.34 20.32 20 21 C20.71452588 16.23649415 21.79534844 11.65798604 23 7 C20.51128017 6.17042672 18.55813012 5.75467633 15.98828125 5.46484375 C14.85229492 5.33432617 14.85229492 5.33432617 13.69335938 5.20117188 C12.51483398 5.0706543 12.51483398 5.0706543 11.3125 4.9375 C10.51521484 4.84662109 9.71792969 4.75574219 8.89648438 4.66210938 C6.931315 4.43852723 4.9656983 4.21888316 3 4 C3 4.99 3 5.98 3 7 C4.03060547 7.09087891 4.03060547 7.09087891 5.08203125 7.18359375 C6.43361328 7.30927734 6.43361328 7.30927734 7.8125 7.4375 C8.70582031 7.51871094 9.59914063 7.59992188 10.51953125 7.68359375 C13 8 13 8 16 9 C15.01 10.65 14.02 12.3 13 14 C6.96251023 13.19500136 0.98729887 12.11517502 -5 11 C-5.33 10.01 -5.66 9.02 -6 8 C-4.02 8 -2.04 8 0 8 C0 7.34 0 6.68 0 6 C0.66 6 1.32 6 2 6 C2 5.34 2 4.68 2 4 C1.34 4 0.68 4 0 4 C0 2.68 0 1.36 0 0 Z " fill="#746F39" transform="translate(330,305)"/>
<path d="M0 0 C1.65 0.33 3.3 0.66 5 1 C5.33794584 9.71149276 4.90640787 17.54789754 3.06933594 26.05737305 C1.87416933 31.86847847 1.82327802 37.26739996 2.08984375 43.20703125 C2 46 2 46 0 49 C-0.99 49 -1.98 49 -3 49 C-7.57104956 39.85790087 -2.22567116 24.37961418 0 15 C-2.31 15.33 -4.62 15.66 -7 16 C-6.5 14.1875 -6.5 14.1875 -5 12 C-2.4136076 10.73847391 0.25200829 9.84356955 3 9 C3 7.68 3 6.36 3 5 C2.34 5 1.68 5 1 5 C0.67 3.35 0.34 1.7 0 0 Z " fill="#B0A042" transform="translate(224,334)"/>
<path d="M0 0 C0 1.32 0 2.64 0 4 C-1.43554025 4.50559908 -2.8735202 5.0042749 -4.3125 5.5 C-5.51326172 5.91765625 -5.51326172 5.91765625 -6.73828125 6.34375 C-9 7 -9 7 -12 7 C-12 7.66 -12 8.32 -12 9 C-13.65532623 10.01866229 -15.32260138 11.01810813 -17 12 C-17.33 12.66 -17.66 13.32 -18 14 C-18.66 14 -19.32 14 -20 14 C-21.6720218 17.1632845 -22.92221136 20.3821918 -24.125 23.75 C-24.47820312 24.73484375 -24.83140625 25.7196875 -25.1953125 26.734375 C-25.46085937 27.48203125 -25.72640625 28.2296875 -26 29 C-26.66 27.68 -27.32 26.36 -28 25 C-28.66 25 -29.32 25 -30 25 C-30 31.6 -30 38.2 -30 45 C-30.33 45 -30.66 45 -31 45 C-32.23771795 22.21012146 -32.23771795 22.21012146 -25 13 C-24.55527344 12.34128906 -24.11054688 11.68257813 -23.65234375 11.00390625 C-18.76087829 4.37261925 -8.43745804 -2.71204008 0 0 Z " fill="#8E833E" transform="translate(318,277)"/>
<path d="M0 0 C0.7425 0.2475 1.485 0.495 2.25 0.75 C2.064375 1.8225 1.87875 2.895 1.6875 4 C1.3195432 7.15391546 1.20534657 8.84818492 2.25 11.75 C3.24 11.42 4.23 11.09 5.25 10.75 C5.25 13.06 5.25 15.37 5.25 17.75 C4.92 16.43 4.59 15.11 4.25 13.75 C3.26 14.41 2.27 15.07 1.25 15.75 C-0.75 15.625 -0.75 15.625 -2.75 14.75 C-4.5 12.6875 -4.5 12.6875 -5.75 10.75 C-9.18793339 10.93129815 -9.18793339 10.93129815 -12.75 11.75 C-13.9000831 13.71672915 -13.9000831 13.71672915 -14.75 15.75 C-17.125 16.75 -17.125 16.75 -19.75 16.75 C-22.0625 14.8125 -22.0625 14.8125 -23.75 12.75 C-23.09 12.75 -22.43 12.75 -21.75 12.75 C-21.75 11.43 -21.75 10.11 -21.75 8.75 C-21.09 8.75 -20.43 8.75 -19.75 8.75 C-19.75 9.41 -19.75 10.07 -19.75 10.75 C-19.09 10.75 -18.43 10.75 -17.75 10.75 C-18.41 9.43 -19.07 8.11 -19.75 6.75 C-18.76 6.42 -17.77 6.09 -16.75 5.75 C-15.75 6.75 -15.75 6.75 -15.6875 9.8125 C-15.708125 10.781875 -15.72875 11.75125 -15.75 12.75 C-15.09 12.75 -14.43 12.75 -13.75 12.75 C-13.79125 12.069375 -13.8325 11.38875 -13.875 10.6875 C-13.72450035 7.15075832 -12.80624147 4.11676967 -11.75 0.75 C-11.42 0.75 -11.09 0.75 -10.75 0.75 C-10.42 2.4 -10.09 4.05 -9.75 5.75 C-8.76 5.75 -7.77 5.75 -6.75 5.75 C-6.75 5.09 -6.75 4.43 -6.75 3.75 C-3.60436893 -0.3276699 -3.60436893 -0.3276699 0 0 Z " fill="#9C8D3B" transform="translate(168.75,336.25)"/>
<path d="M0 0 C0.33 0 0.66 0 1 0 C1.10957031 1.25554687 1.21914062 2.51109375 1.33203125 3.8046875 C2.63780926 19.64382462 2.63780926 19.64382462 9 34 C9 34.66 9 35.32 9 36 C11.31 36 13.62 36 16 36 C15.34 37.32 14.68 38.64 14 40 C10.32937634 40.34145336 8.47857157 40.30049843 5.3125 38.3125 C-2.22024778 30.77975222 -2.16429991 20.51697319 -2.25 10.4375 C-2.25926514 9.7468042 -2.26853027 9.0561084 -2.27807617 8.34448242 C-2.25492758 4.67565817 -2.08982968 3.13474451 0 0 Z " fill="#96863B" transform="translate(74,342)"/>
<path d="M0 0 C0.66 0 1.32 0 2 0 C2.14285714 7.42857143 2.14285714 7.42857143 1 11 C3.87630914 8.12369086 4.82636455 4.77239966 6 1 C6.99 1 7.98 1 9 1 C9.33 2.32 9.66 3.64 10 5 C11.98 4.01 13.96 3.02 16 2 C15.34 3.32 14.68 4.64 14 6 C12.68 6 11.36 6 10 6 C10 6.66 10 7.32 10 8 C11.32 8 12.64 8 14 8 C13.67 9.32 13.34 10.64 13 12 C13 11.01 13 10.02 13 9 C11.35 9 9.7 9 8 9 C7.5875 9.928125 7.175 10.85625 6.75 11.8125 C5.04263719 14.9223394 4.14232742 16.42883629 1 18 C-1.75 17.6875 -1.75 17.6875 -4 17 C-4 16.01 -4 15.02 -4 14 C-5.65 13.67 -7.3 13.34 -9 13 C-9 12.34 -9 11.68 -9 11 C-8.34 11 -7.68 11 -7 11 C-7.33 8.69 -7.66 6.38 -8 4 C-7.34 5.32 -6.68 6.64 -6 8 C-5.34 8 -4.68 8 -4 8 C-2.68 5.36 -1.36 2.72 0 0 Z " fill="#DFE2E1" transform="translate(319,376)"/>
<path d="M0 0 C1.65 0.33 3.3 0.66 5 1 C3.87150068 4.90634379 2.91264186 7.21399474 0 10 C-0.71447643 12.10332891 -0.71447643 12.10332891 -1 14 C1.31 13.34 3.62 12.68 6 12 C8 14 8 14 8.265625 16.57421875 C8.23620216 22.43671949 8.00979123 27.47307412 6 33 C5.01 32.67 4.02 32.34 3 32 C3.66 27.05 4.32 22.1 5 17 C4.34 17.33 3.68 17.66 3 18 C-0.0625 18.125 -0.0625 18.125 -3 18 C-4 17 -4 17 -4.0625 13.9375 C-4.041875 12.968125 -4.02125 11.99875 -4 11 C-5.32 11 -6.64 11 -8 11 C-8 10.34 -8 9.68 -8 9 C-7.236875 8.814375 -6.47375 8.62875 -5.6875 8.4375 C-1.81384272 6.36554378 -1.43454737 4.07713462 0 0 Z " fill="#D4D5D4" transform="translate(337,373)"/>
<path d="M0 0 C1.32 0.66 2.64 1.32 4 2 C4 5.63 4 9.26 4 13 C8.66906555 9.18561401 8.66906555 9.18561401 13 5 C12.7215625 5.86625 12.7215625 5.86625 12.4375 6.75 C11.82065265 8.98697707 11.82065265 8.98697707 12.625 11.0625 C12.74875 11.701875 12.8725 12.34125 13 13 C11.6875 14.75 11.6875 14.75 10 16 C9.34 16 8.68 16 8 16 C8 16.66 8 17.32 8 18 C5.13879744 19.43060128 3.15989415 19.38692581 0 19 C-2.5102231 16.23875459 -2.96396275 14.32433528 -3.375 10.625 C-2.94268252 6.445931 -1.83677344 3.75007911 0 0 Z " fill="#AB9E47" transform="translate(269,335)"/>
<path d="M0 0 C1.04005702 3.38018531 1.08004482 6.4780279 1 10 C0.01 10 -0.98 10 -2 10 C-8.26723505 16.00351476 -12.11706979 24.363964 -16 32 C-17.57177312 28.85645375 -17.88755683 26.54195994 -18 23 C-14.61208606 13.9710449 -7.61246536 5.75576649 0 0 Z " fill="#958A3E" transform="translate(194,352)"/>
<path d="M0 0 C1.9375 0.8125 1.9375 0.8125 3.9375 2.8125 C4.28666177 8.04992659 3.91096879 11.87882803 1.9375 16.8125 C1.2775 16.8125 0.6175 16.8125 -0.0625 16.8125 C-0.3925 14.8325 -0.7225 12.8525 -1.0625 10.8125 C-2.3825 10.8125 -3.7025 10.8125 -5.0625 10.8125 C-5.3925 12.7925 -5.7225 14.7725 -6.0625 16.8125 C-7.7125 16.4825 -9.3625 16.1525 -11.0625 15.8125 C-10.69372924 8.56000831 -10.69372924 8.56000831 -7.6875 5 C-6.388125 3.9171875 -6.388125 3.9171875 -5.0625 2.8125 C-4.546875 2.19375 -4.03125 1.575 -3.5 0.9375 C-2.0625 -0.1875 -2.0625 -0.1875 0 0 Z " fill="#B0A143" transform="translate(153.0625,332.1875)"/>
<path d="M0 0 C0.33 0.99 0.66 1.98 1 3 C1.66 3 2.32 3 3 3 C1.93682305 8.96708062 -2.47544929 13.17549801 -7.25390625 16.62890625 C-11.57721125 19.19655439 -14.84458211 20.66095101 -20 20 C-19.360625 19.71125 -18.72125 19.4225 -18.0625 19.125 C-15.84793921 18.17176549 -15.84793921 18.17176549 -15 16 C-17.97 15.505 -17.97 15.505 -21 15 C-20.67 14.34 -20.34 13.68 -20 13 C-18.948125 13.0825 -17.89625 13.165 -16.8125 13.25 C-12.4201352 12.96197608 -11.16908922 11.897453 -8 9 C-7.34 9 -6.68 9 -6 9 C-5.7525 8.443125 -5.505 7.88625 -5.25 7.3125 C-3.78393985 4.60028873 -1.97010529 2.36412635 0 0 Z " fill="#8D8337" transform="translate(104,363)"/>
<path d="M0 0 C0.66 0.33 1.32 0.66 2 1 C1.835 1.825 1.67 2.65 1.5 3.5 C0.88494426 7.00015485 0.88494426 7.00015485 1.1875 10.5625 C1.28054198 16.54044753 -0.61447357 22.56674415 -3 28 C-3.99 28.33 -4.98 28.66 -6 29 C-6.05418326 26.91695462 -6.09287551 24.83350232 -6.125 22.75 C-6.14820313 21.58984375 -6.17140625 20.4296875 -6.1953125 19.234375 C-6.00273804 16.04534197 -5.45485731 14.73336828 -4 12 C-3.54724722 9.18503259 -3.54724722 9.18503259 -3.375 6.25 C-3.30023438 5.26515625 -3.22546875 4.2803125 -3.1484375 3.265625 C-3.09945312 2.51796875 -3.05046875 1.7703125 -3 1 C-2.01 0.67 -1.02 0.34 0 0 Z " fill="#9A8942" transform="translate(198,350)"/>
<path d="M0 0 C0.66 0 1.32 0 2 0 C2.28657512 9.12264124 2.52178043 18.79239855 -2 27 C-3.32 26.67 -4.64 26.34 -6 26 C-4.56790123 4.56790123 -4.56790123 4.56790123 0 0 Z " fill="#A69744" transform="translate(102,311)"/>
<path d="M0 0 C2.475 0.495 2.475 0.495 5 1 C5 1.99 5 2.98 5 4 C4.39526855 4.17128418 3.79053711 4.34256836 3.16748047 4.51904297 C0.40291624 5.30294487 -2.36104454 6.08895446 -5.125 6.875 C-6.07632812 7.14441406 -7.02765625 7.41382813 -8.0078125 7.69140625 C-11.88243502 8.79459738 -15.7220208 9.90406027 -19.53125 11.21875 C-22.18632604 12.05896394 -23.43139394 11.98792541 -26 11 C-23.56536669 6.85242826 -21.04206134 6.06565882 -16.5 4.8125 C-14.78296875 4.32716797 -14.78296875 4.32716797 -13.03125 3.83203125 C-12.0309375 3.55746094 -11.030625 3.28289062 -10 3 C-9.01 2.67 -8.02 2.34 -7 2 C-4.66700175 1.96045766 -2.33291811 1.95598268 0 2 C0 1.34 0 0.68 0 0 Z " fill="#D8DADA" transform="translate(312,346)"/>
<path d="M0 0 C6.27 0.33 12.54 0.66 19 1 C18.01 1.66 17.02 2.32 16 3 C18.97 3 21.94 3 25 3 C24.34 2.34 23.68 1.68 23 1 C27.95 1 32.9 1 38 1 C38 1.66 38 2.32 38 3 C39.32 3.66 40.64 4.32 42 5 C39.61334063 5.79555312 38.17350924 6.03523151 35.68066406 5.52905273 C32.95602102 4.99132036 30.56885789 4.91606963 27.796875 4.97265625 C26.81589844 4.98490234 25.83492188 4.99714844 24.82421875 5.00976562 C22.79028872 5.04465515 20.75642462 5.08365354 18.72265625 5.12695312 C6.145847 5.26669545 6.145847 5.26669545 1 3 C0.67 2.01 0.34 1.02 0 0 Z " fill="#B3A140" transform="translate(303,331)"/>
<path d="M0 0 C0.66 0.33 1.32 0.66 2 1 C3.936114 6.90053789 4.15713675 11.85914192 3.625 18 C3.56828125 18.77472656 3.5115625 19.54945313 3.453125 20.34765625 C3.31349576 22.23265095 3.15838619 24.11648861 3 26 C2.67 24.68 2.34 23.36 2 22 C1.34 22 0.68 22 0 22 C-0.33 22.99 -0.66 23.98 -1 25 C-2.45635551 20.36393497 -2.37535901 15.48322812 -2.60546875 10.66796875 C-2.74374845 6.70465907 -2.74374845 6.70465907 -4 3 C-2.68 2.67 -1.36 2.34 0 2 C0 1.34 0 0.68 0 0 Z " fill="#86793A" transform="translate(102,289)"/>
<path d="M0 0 C1 2 1 2 0.4375 3.875 C-0.12694072 6.6165692 0.49060835 7.69619169 2 10 C2.66 10.33 3.32 10.66 4 11 C4.33 9.68 4.66 8.36 5 7 C6.125 11.75 6.125 11.75 5 14 C6.32 14.33 7.64 14.66 9 15 C7.824375 15.86625 7.824375 15.86625 6.625 16.75 C4.19952756 18.82897637 3.14305583 20.09040333 2 23 C0.95550089 19.86650268 1.06576355 19.01031744 2 16 C1.360625 15.855625 0.72125 15.71125 0.0625 15.5625 C-2 15 -2 15 -3 14 C-4.67542976 14.28604898 -6.34385343 14.61781233 -8 15 C-7.34 14.34 -6.68 13.68 -6 13 C-6.33 12.01 -6.66 11.02 -7 10 C-6.01 9.67 -5.02 9.34 -4 9 C-4.99 9 -5.98 9 -7 9 C-6.67 8.01 -6.34 7.02 -6 6 C-5.34 6 -4.68 6 -4 6 C-2.61061923 4.03852126 -1.2739589 2.03833424 0 0 Z " fill="#7A7024" transform="translate(197,335)"/>
<path d="M0 0 C9.41002278 -0.18451025 9.41002278 -0.18451025 14 1 C12.79521711 4.74821345 10.53741026 6.31145374 7.125 8.1171875 C1.00784661 10.6585049 -5.43872244 11.28527294 -12 11 C-12 10.67 -12 10.34 -12 10 C-10.02 9.67 -8.04 9.34 -6 9 C-5.67 7.68 -5.34 6.36 -5 5 C-2.98177083 4.51171875 -0.96354167 4.0234375 1.0546875 3.53515625 C3.0585657 3.05153008 3.0585657 3.05153008 5 2 C3.35 1.67 1.7 1.34 0 1 C0 0.67 0 0.34 0 0 Z " fill="#908538" transform="translate(331,337)"/>
<path d="M0 0 C0 3.40508962 -0.78444034 4.80596374 -2.3125 7.8125 C-5.38159197 14.31688241 -6.73467532 20.95327314 -8 28 C-8.66 27.67 -9.32 27.34 -10 27 C-9.67 24.69 -9.34 22.38 -9 20 C-9.66 20 -10.32 20 -11 20 C-11.33 20.66 -11.66 21.32 -12 22 C-11.00318287 15.54189755 -9.98363508 9.23428168 -8 3 C-6 6 -6 6 -6 8 C-5.34 8 -4.68 8 -4 8 C-3.67 5.69 -3.34 3.38 -3 1 C-2.01 0.67 -1.02 0.34 0 0 Z " fill="#8E8137" transform="translate(132,312)"/>
<path d="M0 0 C0.99 0.33 1.98 0.66 3 1 C3 2.32 3 3.64 3 5 C3.99 5.33 4.98 5.66 6 6 C5.88541307 7.43836751 5.75790884 8.87570966 5.625 10.3125 C5.55539062 11.11300781 5.48578125 11.91351563 5.4140625 12.73828125 C5 15 5 15 3 18 C3 16.68 3 15.36 3 14 C2.34 14 1.68 14 1 14 C1 13.34 1 12.68 1 12 C-0.65 11.67 -2.3 11.34 -4 11 C-5.03321725 7.71249056 -5.20141923 6.42202124 -3.6875 3.25 C-2 1 -2 1 0 0 Z " fill="#EDF1F0" transform="translate(294,371)"/>
<path d="M0 0 C1.98 0.66 3.96 1.32 6 2 C7.55608908 12.82953887 7.55608908 12.82953887 5 17 C4.34 17.33 3.68 17.66 3 18 C3 17.34 3 16.68 3 16 C2.34 16.33 1.68 16.66 1 17 C1.33 17.66 1.66 18.32 2 19 C0.02 19.66 -1.96 20.32 -4 21 C-4.33 19.68 -4.66 18.36 -5 17 C-4.34 17 -3.68 17 -3 17 C-2.67 16.34 -2.34 15.68 -2 15 C-1.34 15.33 -0.68 15.66 0 16 C1.69057861 10.71694183 1.29188056 5.32900731 0 0 Z " fill="#AF9E38" transform="translate(356,311)"/>
<path d="M0 0 C0.66 0 1.32 0 2 0 C2.33 2.31 2.66 4.62 3 7 C4.98 7 6.96 7 9 7 C9.125 10.375 9.125 10.375 9 14 C8.34 14.66 7.68 15.32 7 16 C7 14.02 7 12.04 7 10 C6.278125 10.53625 5.55625 11.0725 4.8125 11.625 C2 13 2 13 -0.75 12.5625 C-3 11 -3 11 -3.875 8 C-4 5 -4 5 -3 3 C-3.66 2.67 -4.32 2.34 -5 2 C-3.35 2 -1.7 2 0 2 C0 1.34 0 0.68 0 0 Z " fill="#9D903D" transform="translate(215,342)"/>
<path d="M0 0 C1.65 0.33 3.3 0.66 5 1 C5.17942163 4.94727588 5.09350689 7.5980513 3 11 C2.01 11 1.02 11 0 11 C0 11.66 0 12.32 0 13 C-1.65 13.33 -3.3 13.66 -5 14 C-4.58669586 8.00708997 -3.68096635 4.74963401 0 0 Z " fill="#AC9F46" transform="translate(273,291)"/>
<path d="M0 0 C0 1.32 0 2.64 0 4 C-1.43554025 4.50559908 -2.8735202 5.0042749 -4.3125 5.5 C-5.51326172 5.91765625 -5.51326172 5.91765625 -6.73828125 6.34375 C-9 7 -9 7 -12 7 C-12 7.66 -12 8.32 -12 9 C-13.65 9.66 -15.3 10.32 -17 11 C-16.67 10.01 -16.34 9.02 -16 8 C-17.32 7.67 -18.64 7.34 -20 7 C-5.49729892 -2.11434574 -5.49729892 -2.11434574 0 0 Z " fill="#8D7F39" transform="translate(318,277)"/>
<path d="M0 0 C0.66 0 1.32 0 2 0 C3.02371088 5.33298033 2.84796785 9.41415807 1.75 14.8125 C1.62753906 15.47958984 1.50507813 16.14667969 1.37890625 16.83398438 C0.37714395 21.7485707 0.37714395 21.7485707 -3 24 C-5.54294236 16.37117293 -3.61297884 9.28384775 -1 2 C-0.67 1.34 -0.34 0.68 0 0 Z " fill="#9B8E44" transform="translate(175,377)"/>
<path d="M0 0 C-0.33 0.66 -0.66 1.32 -1 2 C0.32 2 1.64 2 3 2 C3 3.98 3 5.96 3 8 C1.68 7.34 0.36 6.68 -1 6 C-1 5.34 -1 4.68 -1 4 C-2.77111844 4.47811177 -4.54188483 4.9575278 -6.3125 5.4375 C-7.29863281 5.70433594 -8.28476562 5.97117187 -9.30078125 6.24609375 C-11.21517526 6.78079425 -13.11433615 7.37144538 -15 8 C-15 8.66 -15 9.32 -15 10 C-16.32 9.67 -17.64 9.34 -19 9 C-19 8.01 -19 7.02 -19 6 C-5.28846154 -2.64423077 -5.28846154 -2.64423077 0 0 Z " fill="#C1C5C2" transform="translate(289,355)"/>
<path d="M0 0 C0.99 0.33 1.98 0.66 3 1 C4.76776276 5.25743911 3.2040323 8.75047422 2 13 C1.67 12.34 1.34 11.68 1 11 C0.34 11 -0.32 11 -1 11 C-1 11.66 -1 12.32 -1 13 C-1.66 13 -2.32 13 -3 13 C-3.33 12.01 -3.66 11.02 -4 10 C-4.28875 10.94875 -4.5775 11.8975 -4.875 12.875 C-6 16 -6 16 -8 18 C-7.5837413 11.61736662 -5.34649204 6.44195901 -2 1 C-1.34 0.67 -0.68 0.34 0 0 Z " fill="#A89730" transform="translate(240,297)"/>
<path d="M0 0 C2.55912856 0.37913016 4.34357865 1.18815021 6.625 2.4375 C13.49043829 5.61594365 20.51161087 6.27734775 28 6 C25.73901456 8.26098544 25.10519713 8.58357456 22 9 C19.38353512 8.75783782 16.84207413 8.45694606 14.25 8.0625 C13.55261719 7.96259766 12.85523438 7.86269531 12.13671875 7.75976562 C10.42348274 7.51334127 8.71159275 7.25759045 7 7 C6.67 8.32 6.34 9.64 6 11 C5.67 10.34 5.34 9.68 5 9 C5.33 8.34 5.66 7.68 6 7 C5.21625 6.7525 4.4325 6.505 3.625 6.25 C0.67682892 4.84610901 0.0975223 3.99324263 -1 1 C-0.67 0.67 -0.34 0.34 0 0 Z " fill="#776E32" transform="translate(296,297)"/>
<path d="M0 0 C0.99 0 1.98 0 3 0 C3.33 1.32 3.66 2.64 4 4 C5.98 3.01 7.96 2.02 10 1 C9.34 2.32 8.68 3.64 8 5 C6.68 5 5.36 5 4 5 C4 5.66 4 6.32 4 7 C5.32 7 6.64 7 8 7 C7.67 8.32 7.34 9.64 7 11 C7 10.01 7 9.02 7 8 C5.35 8 3.7 8 2 8 C1.01 9.98 0.02 11.96 -1 14 C-2.65 13.67 -4.3 13.34 -6 13 C-6 12.34 -6 11.68 -6 11 C-5.34 11 -4.68 11 -4 11 C-3.69255859 9.93458984 -3.69255859 9.93458984 -3.37890625 8.84765625 C-3.10949219 7.92855469 -2.84007812 7.00945312 -2.5625 6.0625 C-2.29566406 5.14597656 -2.02882813 4.22945313 -1.75390625 3.28515625 C-1 1 -1 1 0 0 Z " fill="#9E9F9E" transform="translate(325,377)"/>
<path d="M0 0 C0.99 0.66 1.98 1.32 3 2 C3.46914391 5.28400735 2.86606745 7.43156043 1.875 10.625 C1.58625 11.73875 1.2975 12.8525 1 14 C1.99 15.485 1.99 15.485 3 17 C1.35 16.67 -0.3 16.34 -2 16 C-2.33 14.02 -2.66 12.04 -3 10 C-3.66 10 -4.32 10 -5 10 C-5.3125 7.8125 -5.3125 7.8125 -5 5 C-2.5 2.1875 -2.5 2.1875 0 0 Z " fill="#A39444" transform="translate(176,338)"/>
<path d="M0 0 C0.33 0 0.66 0 1 0 C1.33 2.64 1.66 5.28 2 8 C1.01 8.495 1.01 8.495 0 9 C0.99 9.66 1.98 10.32 3 11 C1.68 11 0.36 11 -1 11 C-1.3403125 11.9590625 -1.3403125 11.9590625 -1.6875 12.9375 C-3 15 -3 15 -5.375 16 C-8 16 -8 16 -10.3125 14.0625 C-10.869375 13.381875 -11.42625 12.70125 -12 12 C-11.34 12 -10.68 12 -10 12 C-10 10.68 -10 9.36 -10 8 C-9.34 8 -8.68 8 -8 8 C-8 8.66 -8 9.32 -8 10 C-7.34 10 -6.68 10 -6 10 C-6.66 8.68 -7.32 7.36 -8 6 C-7.01 5.67 -6.02 5.34 -5 5 C-4 6 -4 6 -3.9375 9.0625 C-3.958125 10.031875 -3.97875 11.00125 -4 12 C-3.34 12 -2.68 12 -2 12 C-2.04125 11.319375 -2.0825 10.63875 -2.125 9.9375 C-1.97450035 6.40075832 -1.05624147 3.36676967 0 0 Z " fill="#85782E" transform="translate(157,337)"/>
<path d="M0 0 C0.33 1.32 0.66 2.64 1 4 C2.47890069 5.73026102 2.47890069 5.73026102 4 7 C3.071875 7.12375 3.071875 7.12375 2.125 7.25 C-0.16669871 7.79326091 -0.16669871 7.79326091 -1.0625 9.9375 C-1.371875 10.618125 -1.68125 11.29875 -2 12 C-5.22791555 14.1519437 -6.28400809 14.20086443 -10 14 C-10.33 13.34 -10.66 12.68 -11 12 C-9.68 12 -8.36 12 -7 12 C-7.66 11.34 -8.32 10.68 -9 10 C-8.625 6.875 -8.625 6.875 -8 4 C-7.01 5.485 -7.01 5.485 -6 7 C-4.02 4.69 -2.04 2.38 0 0 Z " fill="#908536" transform="translate(185,342)"/>
<path d="M0 0 C0.33 0 0.66 0 1 0 C1 2.31 1 4.62 1 7 C1.66 7 2.32 7 3 7 C3.33 6.34 3.66 5.68 4 5 C3.34 13.91 2.68 22.82 2 32 C1.67 32 1.34 32 1 32 C0.34 26.39 -0.32 20.78 -1 15 C-1.33 15 -1.66 15 -2 15 C-1.85879286 13.06215735 -1.71187127 11.12473045 -1.5625 9.1875 C-1.48128906 8.10855469 -1.40007812 7.02960938 -1.31640625 5.91796875 C-1 3 -1 3 0 0 Z " fill="#8B7C36" transform="translate(75,329)"/>
<path d="M0 0 C1.65 0.33 3.3 0.66 5 1 C3.85993252 4.94638742 2.85598116 7.14401884 0 10 C-1.20049407 13.10007201 -1.20049407 13.10007201 -2 16 C-2.66 15.67 -3.32 15.34 -4 15 C-4 13.68 -4 12.36 -4 11 C-5.32 11 -6.64 11 -8 11 C-8 10.34 -8 9.68 -8 9 C-7.236875 8.814375 -6.47375 8.62875 -5.6875 8.4375 C-1.81384272 6.36554378 -1.43454737 4.07713462 0 0 Z " fill="#EDEEEE" transform="translate(337,373)"/>
<path d="M0 0 C0.33 0 0.66 0 1 0 C1.33794471 3.02038089 1.67048433 6.04119756 2 9.0625 C2.09539062 9.91005859 2.19078125 10.75761719 2.2890625 11.63085938 C2.81056158 16.45472589 3.10532727 21.14836264 3 26 C2.67 26 2.34 26 2 26 C2 24.35 2 22.7 2 21 C0.68 21 -0.64 21 -2 21 C-2.05390357 18.06225537 -2.0936255 15.12549768 -2.125 12.1875 C-2.14175781 11.35412109 -2.15851563 10.52074219 -2.17578125 9.66210938 C-2.18222656 8.85966797 -2.18867187 8.05722656 -2.1953125 7.23046875 C-2.20578613 6.49207764 -2.21625977 5.75368652 -2.22705078 4.99291992 C-2 3 -2 3 0 0 Z " fill="#B4A656" transform="translate(74,342)"/>
<path d="M0 0 C0.66 0.99 1.32 1.98 2 3 C3.32 2.67 4.64 2.34 6 2 C7.5625 3.8125 7.5625 3.8125 9 6 C8.67 6.99 8.34 7.98 8 9 C2.79491833 10.1277677 2.79491833 10.1277677 0 10 C-2.5625 7.8125 -2.5625 7.8125 -4 5 C-3.75 2.6875 -3.75 2.6875 -3 1 C-2.34 2.32 -1.68 3.64 -1 5 C-0.67 3.35 -0.34 1.7 0 0 Z " fill="#817533" transform="translate(247,345)"/>
<path d="M0 0 C0.66 0 1.32 0 2 0 C1.67 2.31 1.34 4.62 1 7 C-0.32 7.33 -1.64 7.66 -3 8 C-3.33 10.31 -3.66 12.62 -4 15 C-4.66 15 -5.32 15 -6 15 C-7.86987216 11.26025568 -7.30641834 6.53209172 -6.5 2.5 C-6.335 2.005 -6.17 1.51 -6 1 C-5.01 1 -4.02 1 -3 1 C-2.67 1.66 -2.34 2.32 -2 3 C-1.34 2.67 -0.68 2.34 0 2 C0 1.34 0 0.68 0 0 Z " fill="#B2A13E" transform="translate(132,305)"/>
<path d="M0 0 C0.99 0.99 1.98 1.98 3 3 C2.34 4.98 1.68 6.96 1 9 C1.66 9 2.32 9 3 9 C3.12375 7.700625 3.2475 6.40125 3.375 5.0625 C3.5859375 2.84765625 3.5859375 2.84765625 4 1 C4.66 0.67 5.32 0.34 6 0 C5.7168444 2.08450717 5.42314331 4.16758367 5.125 6.25 C4.96257812 7.41015625 4.80015625 8.5703125 4.6328125 9.765625 C4.08179569 12.58193313 3.44203518 14.55217557 2 17 C1.67 15.02 1.34 13.04 1 11 C-0.65 10.67 -2.3 10.34 -4 10 C-3.43454163 6.04179141 -2.19097652 3.3340947 0 0 Z " fill="#998D3A" transform="translate(257,339)"/>
<path d="M0 0 C0.66 0.33 1.32 0.66 2 1 C2 2.32 2 3.64 2 5 C3.32 4.34 4.64 3.68 6 3 C6 3.66 6 4.32 6 5 C7.65 4.67 9.3 4.34 11 4 C9.9375 6.4375 9.9375 6.4375 8 9 C4.5 9.9375 4.5 9.9375 1 10 C0.01 9.34 -0.98 8.68 -2 8 C-2.3125 5 -2.3125 5 -2 2 C-1.34 1.34 -0.68 0.68 0 0 Z " fill="#9D9241" transform="translate(175,395)"/>
<path d="M0 0 C1.10348268 3.31044803 0.99444068 5.65506316 0 9 C-0.99 9.495 -0.99 9.495 -2 10 C-1.01 10 -0.02 10 1 10 C0.67 10.66 0.34 11.32 0 12 C-0.66 11.67 -1.32 11.34 -2 11 C-1.34 12.32 -0.68 13.64 0 15 C-2.375 14.75 -2.375 14.75 -5 14 C-6.26953125 12.24609375 -6.26953125 12.24609375 -7 10 C-6.42578125 7.67578125 -6.42578125 7.67578125 -5.3125 5.3125 C-4.95800781 4.52488281 -4.60351562 3.73726563 -4.23828125 2.92578125 C-3 1 -3 1 0 0 Z " fill="#B5A245" transform="translate(192,334)"/>
<path d="M0 0 C1.24628553 2.49257106 1.08042934 4.33645792 0.75 7.0625 C0 9 0 9 -2.0625 10.25 C-2.701875 10.4975 -3.34125 10.745 -4 11 C-4 11.66 -4 12.32 -4 13 C-4.99 13.33 -5.98 13.66 -7 14 C-7.33 13.01 -7.66 12.02 -8 11 C-8.66 10.67 -9.32 10.34 -10 10 C-10 7.03 -10 4.06 -10 1 C-9.67 1 -9.34 1 -9 1 C-8.67 3.31 -8.34 5.62 -8 8 C-7.05125 7.236875 -6.1025 6.47375 -5.125 5.6875 C-4.59132813 5.25824219 -4.05765625 4.82898438 -3.5078125 4.38671875 C-1.74707893 2.87729455 -1.74707893 2.87729455 0 0 Z " fill="#82732E" transform="translate(281,340)"/>
<path d="M0 0 C1.375 2.5625 1.375 2.5625 2 5 C-2.75 8 -2.75 8 -5 8 C-5.33 7.34 -5.66 6.68 -6 6 C-6.99 6 -7.98 6 -9 6 C-8.625 3.0625 -8.625 3.0625 -8 0 C-5.01122021 -1.4943899 -3.14997454 -0.91874257 0 0 Z " fill="#998E3A" transform="translate(247,331)"/>
<path d="M0 0 C0.33 0 0.66 0 1 0 C1.144375 0.94875 1.28875 1.8975 1.4375 2.875 C1.82935399 5.8934494 1.82935399 5.8934494 3 8 C2.58654153 10.57327298 2.11387845 13.08162024 1.5625 15.625 C1.41490234 16.33140625 1.26730469 17.0378125 1.11523438 17.765625 C0.74950507 19.51168749 0.37552879 21.25601884 0 23 C-0.33 23 -0.66 23 -1 23 C-1.33 20.69 -1.66 18.38 -2 16 C-3.32 16 -4.64 16 -6 16 C-6.66 15.67 -7.32 15.34 -8 15 C-7.50628906 14.50371094 -7.01257813 14.00742187 -6.50390625 13.49609375 C-2.27201535 9.00875672 -0.12980837 6.2308016 0 0 Z " fill="#B7B8B8" transform="translate(346,371)"/>
<path d="M0 0 C0.33 0 0.66 0 1 0 C1.40214229 6.16618181 -0.03181664 11.17745757 -2 17 C-3.32 17 -4.64 17 -6 17 C-6 14.69 -6 12.38 -6 10 C-5.01 9.67 -4.02 9.34 -3 9 C-2.87625 7.88625 -2.7525 6.7725 -2.625 5.625 C-2 2 -2 2 0 0 Z " fill="#C0C0C0" transform="translate(282,394)"/>
<path d="M0 0 C4.95 0 9.9 0 15 0 C15 0.99 15 1.98 15 3 C10.05 4.485 10.05 4.485 5 6 C5 5.34 5 4.68 5 4 C3.35 3.67 1.7 3.34 0 3 C0 3.66 0 4.32 0 5 C-0.99 4.67 -1.98 4.34 -3 4 C-2.34 4 -1.68 4 -1 4 C-0.67 2.68 -0.34 1.36 0 0 Z " fill="#B0A045" transform="translate(312,343)"/>
<path d="M0 0 C0.66 0 1.32 0 2 0 C3.17426264 2.34852528 3.11508173 3.73774065 3.09765625 6.3515625 C3.09443359 7.20234375 3.09121094 8.053125 3.08789062 8.9296875 C3.07951172 9.81914062 3.07113281 10.70859375 3.0625 11.625 C3.05798828 12.5221875 3.05347656 13.419375 3.04882812 14.34375 C3.03702591 16.56256648 3.02056155 18.78125018 3 21 C2.01 21.33 1.02 21.66 0 22 C0 14.74 0 7.48 0 0 Z " fill="#B4A64F" transform="translate(288,302)"/>
<path d="M0 0 C0.33 0 0.66 0 1 0 C2.92471317 5.33835539 4.39891424 10.34979382 5 16 C4.01 16.33 3.02 16.66 2 17 C1.67 17.66 1.34 18.32 1 19 C0.01 18.67 -0.98 18.34 -2 18 C-1.814375 17.113125 -1.62875 16.22625 -1.4375 15.3125 C-0.820189 12.12927932 -0.820189 12.12927932 -1.5625 9.5625 C-2.16861828 6.01237863 -1.123321 3.369963 0 0 Z " fill="#968B3B" transform="translate(291,317)"/>
<path d="M0 0 C1.09699219 0.08378906 2.19398438 0.16757812 3.32421875 0.25390625 C4.77862096 0.35712189 6.23304951 0.45996694 7.6875 0.5625 C8.40873047 0.61857422 9.12996094 0.67464844 9.87304688 0.73242188 C13.77314064 0.99955159 17.21111028 1.00887596 21 0 C21 0.66 21 1.32 21 2 C12.57142857 3.28571429 12.57142857 3.28571429 8 2 C7.67 2.66 7.34 3.32 7 4 C7 3.34 7 2.68 7 2 C6.34 2 5.68 2 5 2 C5 3.65 5 5.3 5 7 C2.03 6.505 2.03 6.505 -1 6 C-0.67 4.02 -0.34 2.04 0 0 Z " fill="#AEA03F" transform="translate(303,304)"/>
<path d="M0 0 C0.33 0.99 0.66 1.98 1 3 C1.99 3.33 2.98 3.66 4 4 C4 4.99 4 5.98 4 7 C0.25 8.125 0.25 8.125 -2 7 C-2 7.99 -2 8.98 -2 10 C-2.66 10 -3.32 10 -4 10 C-4.268125 9.21625 -4.53625 8.4325 -4.8125 7.625 C-5.84814432 4.71885077 -5.84814432 4.71885077 -9 3 C-6.03 2.01 -3.06 1.02 0 0 Z " fill="#9E963D" transform="translate(326,306)"/>
<path d="M0 0 C0.66 0.33 1.32 0.66 2 1 C1.625 3.9375 1.625 3.9375 1 7 C0.01 7.495 0.01 7.495 -1 8 C-1 7.34 -1 6.68 -1 6 C-1.66 6 -2.32 6 -3 6 C-3.33 6.99 -3.66 7.98 -4 9 C-5.32 9 -6.64 9 -8 9 C-8 9.99 -8 10.98 -8 12 C-9.32 11.67 -10.64 11.34 -12 11 C-12 10.01 -12 9.02 -12 8 C-9.29120665 6.64560332 -6.99066732 6.93498549 -4 7 C-3.67 5.02 -3.34 3.04 -3 1 C-2.01 0.67 -1.02 0.34 0 0 Z " fill="#B2A53D" transform="translate(122,346)"/>
<path d="M0 0 C0.99 0 1.98 0 3 0 C3 4.29 3 8.58 3 13 C2.01 13.495 2.01 13.495 1 14 C0.731875 13.21625 0.46375 12.4325 0.1875 11.625 C-0.84814432 8.71885077 -0.84814432 8.71885077 -4 7 C-3.34 5.35 -2.68 3.7 -2 2 C-1.34 2 -0.68 2 0 2 C0 1.34 0 0.68 0 0 Z " fill="#B7A845" transform="translate(244,337)"/>
<path d="M0 0 C0.66 0 1.32 0 2 0 C4.46751239 3.70126859 4.30721156 5.62223532 4 10 C3 12.4375 3 12.4375 2 14 C0 14 0 14 -1.625 12.5 C-2.07875 12.005 -2.5325 11.51 -3 11 C-3.33 11.66 -3.66 12.32 -4 13 C-3.67 11.02 -3.34 9.04 -3 7 C-1.68 6.67 -0.36 6.34 1 6 C0.67 4.02 0.34 2.04 0 0 Z " fill="#94873D" transform="translate(354,313)"/>
<path d="M0 0 C1.24546405 2.49092811 0.7767578 3.41080733 0 6 C0.99 6.33 1.98 6.66 3 7 C2.01 7.33 1.02 7.66 0 8 C-0.6837045 9.32467746 -1.34964186 10.65863633 -2 12 C-5 14 -5 14 -7.1875 13.625 C-7.785625 13.41875 -8.38375 13.2125 -9 13 C-7.68 12.67 -6.36 12.34 -5 12 C-5.33 10.35 -5.66 8.7 -6 7 C-5.34 7 -4.68 7 -4 7 C-3.71125 6.21625 -3.4225 5.4325 -3.125 4.625 C-2 2 -2 2 0 0 Z " fill="#817534" transform="translate(142,342)"/>
<path d="M0 0 C0.66 0 1.32 0 2 0 C1.67 2.64 1.34 5.28 1 8 C-0.58409994 7.88512252 -2.16728963 7.75765492 -3.75 7.625 C-4.63171875 7.55539062 -5.5134375 7.48578125 -6.421875 7.4140625 C-8.99066382 7.00149945 -10.75841015 6.28839043 -13 5 C-12 4 -12 4 -9.71484375 3.90234375 C-8.34005859 3.91974609 -8.34005859 3.91974609 -6.9375 3.9375 C-6.01839844 3.94652344 -5.09929687 3.95554687 -4.15234375 3.96484375 C-3.44207031 3.97644531 -2.73179687 3.98804688 -2 4 C-1.67 3.01 -1.34 2.02 -1 1 C-0.67 0.67 -0.34 0.34 0 0 Z " fill="#AEA147" transform="translate(355,302)"/>
<path d="M0 0 C0.66 0.33 1.32 0.66 2 1 C1.45018084 7.04801071 0.09570426 12.30601106 -2 18 C-2.66 18 -3.32 18 -4 18 C-3.814375 17.113125 -3.62875 16.22625 -3.4375 15.3125 C-2.82183694 12.11988902 -2.82183694 12.11988902 -3.5625 9.5 C-4.14634473 6.16374439 -3.32686345 4.07273641 -2 1 C-1.34 0.67 -0.68 0.34 0 0 Z " fill="#B0A045" transform="translate(262,330)"/>
<path d="M0 0 C1.65 0.33 3.3 0.66 5 1 C4.814375 2.0725 4.62875 3.145 4.4375 4.25 C4.0695432 7.40391546 3.95534657 9.09818492 5 12 C5.99 11.67 6.98 11.34 8 11 C8 13.31 8 15.62 8 18 C7.67 16.68 7.34 15.36 7 14 C6.01 14.66 5.02 15.32 4 16 C1.8125 15.625 1.8125 15.625 0 15 C1.32 14.67 2.64 14.34 4 14 C4 12.68 4 11.36 4 10 C3.34 10 2.68 10 2 10 C1.814375 8.576875 1.814375 8.576875 1.625 7.125 C1.28312823 3.91332809 1.28312823 3.91332809 -1 2 C-0.67 1.34 -0.34 0.68 0 0 Z " fill="#807534" transform="translate(166,336)"/>
<path d="M0 0 C8.25 0 16.5 0 25 0 C24.34 0.66 23.68 1.32 23 2 C23.33 2.66 23.66 3.32 24 4 C13.44191344 4.18451025 13.44191344 4.18451025 9 3 C9 2.67 9 2.34 9 2 C6.03 1.67 3.06 1.34 0 1 C0 0.67 0 0.34 0 0 Z " fill="#A3923E" transform="translate(305,331)"/>
<path d="M0 0 C1.26041675 2.5208335 0.66225891 3.35096436 0 6 C0.33 6.66 0.66 7.32 1 8 C0.34 8 -0.32 8 -1 8 C-1.12375 8.78375 -1.2475 9.5675 -1.375 10.375 C-2 13 -2 13 -4 15 C-6.125 14.625 -6.125 14.625 -8 14 C-7.34 13.67 -6.68 13.34 -6 13 C-6.33 12.01 -6.66 11.02 -7 10 C-6.01 9.67 -5.02 9.34 -4 9 C-4.99 9 -5.98 9 -7 9 C-6.67 8.01 -6.34 7.02 -6 6 C-5.34 6 -4.68 6 -4 6 C-2.61061923 4.03852126 -1.2739589 2.03833424 0 0 Z " fill="#8C7F34" transform="translate(197,335)"/>
<path d="M0 0 C1 3 1 3 -0.4375 6.1875 C-1.2109375 7.5796875 -1.2109375 7.5796875 -2 9 C-2.99 9 -3.98 9 -5 9 C-6.33981486 9.3062434 -7.67511887 9.63451555 -9 10 C-9.625 7.125 -9.625 7.125 -10 4 C-9.34 3.34 -8.68 2.68 -8 2 C-5.525 2.99 -5.525 2.99 -3 4 C-3 3.34 -3 2.68 -3 2 C-2.01 2 -1.02 2 0 2 C0 1.34 0 0.68 0 0 Z " fill="#988A35" transform="translate(276,300)"/>
<path d="M0 0 C0.33 0.66 0.66 1.32 1 2 C1.99 2.33 2.98 2.66 4 3 C4.33 3.99 4.66 4.98 5 6 C4.401875 5.814375 3.80375 5.62875 3.1875 5.4375 C0.83591238 4.77906313 0.83591238 4.77906313 -2 6 C-1.67 7.98 -1.34 9.96 -1 12 C-1.99 12.33 -2.98 12.66 -4 13 C-3.67 10.36 -3.34 7.72 -3 5 C-6.00778521 3.99740493 -8.53820647 3.69685358 -11.6875 3.4375 C-12.68136719 3.35371094 -13.67523438 3.26992188 -14.69921875 3.18359375 C-15.83810547 3.09271484 -15.83810547 3.09271484 -17 3 C-17 2.67 -17 2.34 -17 2 C-15.10424749 1.97278824 -13.20838021 1.95350864 -11.3125 1.9375 C-10.25675781 1.92589844 -9.20101563 1.91429687 -8.11328125 1.90234375 C-5.27589738 1.99134575 -2.7561081 2.35060162 0 3 C0 2.01 0 1.02 0 0 Z " fill="#73692E" transform="translate(356,307)"/>
<path d="M0 0 C0.66 0.33 1.32 0.66 2 1 C2.05429959 2.74965358 2.09292823 4.49979787 2.125 6.25 C2.14820313 7.22453125 2.17140625 8.1990625 2.1953125 9.203125 C1.99862781 12.0196498 1.44568916 13.60949036 0 16 C-2.35119399 12.47320901 -2.21443452 10.97120515 -2.125 6.8125 C-2.10695312 5.72582031 -2.08890625 4.63914062 -2.0703125 3.51953125 C-2.04710937 2.68808594 -2.02390625 1.85664063 -2 1 C-1.34 0.67 -0.68 0.34 0 0 Z " fill="#BBAD4B" transform="translate(257,349)"/>
<path d="M0 0 C0.33 0 0.66 0 1 0 C1.67258667 2.33163378 2.33847444 4.6652039 3 7 C3.2475 7.721875 3.495 8.44375 3.75 9.1875 C4.08835609 11.64058162 3.25925433 12.92593404 2 15 C0.68 14.67 -0.64 14.34 -2 14 C-1.85795259 12.41632253 -1.71119847 10.83306682 -1.5625 9.25 C-1.48128906 8.36828125 -1.40007812 7.4865625 -1.31640625 6.578125 C-1.03761535 4.30649548 -0.61209423 2.20148177 0 0 Z " fill="#8F7E3C" transform="translate(98,323)"/>
<path d="M0 0 C0.99 0 1.98 0 3 0 C3 2.64 3 5.28 3 8 C-0.34252724 8.07427838 -2.8035914 8.06546953 -6 7 C-5 4 -5 4 -3 2.9375 C-2.34 2.628125 -1.68 2.31875 -1 2 C-0.67 1.34 -0.34 0.68 0 0 Z " fill="#9A8C33" transform="translate(151,332)"/>
<path d="M0 0 C0.66 0 1.32 0 2 0 C2 0.99 2 1.98 2 3 C2.99 3.33 3.98 3.66 5 4 C0.38987758 6.95047835 -2.36529617 8.5497272 -8 8 C-7.360625 7.71125 -6.72125 7.4225 -6.0625 7.125 C-3.84793921 6.17176549 -3.84793921 6.17176549 -3 4 C-5.97 3.505 -5.97 3.505 -9 3 C-8.67 2.34 -8.34 1.68 -8 1 C-6.865625 1.020625 -5.73125 1.04125 -4.5625 1.0625 C-1.18424326 1.41577477 -1.18424326 1.41577477 0 0 Z " fill="#776B2A" transform="translate(92,375)"/>
<path d="M0 0 C3 1 3 1 4.25 2.75 C5.17574966 5.52724898 4.77341204 7.21571665 4 10 C2.68 10.33 1.36 10.66 0 11 C-1.26026798 8.47946405 -0.91874445 7.1457902 -0.5625 4.375 C-0.46066406 3.55773437 -0.35882813 2.74046875 -0.25390625 1.8984375 C-0.17011719 1.27195312 -0.08632812 0.64546875 0 0 Z " fill="#9B9044" transform="translate(221,372)"/>
<path d="M0 0 C0.66 0.33 1.32 0.66 2 1 C1.34 4.96 0.68 8.92 0 13 C-0.99 12.67 -1.98 12.34 -3 12 C-3.84098656 7.98195309 -4.05404945 4.98196457 -3 1 C-2.01 0.67 -1.02 0.34 0 0 Z " fill="#BBA741" transform="translate(198,350)"/>
<path d="M0 0 C5.94 0 11.88 0 18 0 C18 0.33 18 0.66 18 1 C15.36 1.33 12.72 1.66 10 2 C10.99 2.66 11.98 3.32 13 4 C8.1666528 4.08333357 3.76307437 3.95261487 -1 3 C-0.67 2.01 -0.34 1.02 0 0 Z " fill="#887F47" transform="translate(333,305)"/>
<path d="M0 0 C3.63 0 7.26 0 11 0 C11 0.33 11 0.66 11 1 C8.36 1.33 5.72 1.66 3 2 C8.63735071 5.4364867 8.63735071 5.4364867 15 7 C15 7.33 15 7.66 15 8 C14.195625 8.12375 13.39125 8.2475 12.5625 8.375 C11.716875 8.58125 10.87125 8.7875 10 9 C9.67 9.66 9.34 10.32 9 11 C8.01 10.67 7.02 10.34 6 10 C6.66 10 7.32 10 8 10 C7.16666667 7.83333333 7.16666667 7.83333333 5 7 C5 6.34 5 5.68 5 5 C4.01 5 3.02 5 2 5 C2 4.34 2 3.68 2 3 C1.01 3.33 0.02 3.66 -1 4 C-0.67 2.68 -0.34 1.36 0 0 Z " fill="#7C7230" transform="translate(302,335)"/>
<path d="M0 0 C0.66 0.33 1.32 0.66 2 1 C1.125 7.75 1.125 7.75 0 10 C-3.0625 10.625 -3.0625 10.625 -6 11 C-5.49396008 8.83125748 -5.00016187 7.00032373 -4 5 C-3.01 5 -2.02 5 -1 5 C-0.67 3.35 -0.34 1.7 0 0 Z " fill="#AE9C4A" transform="translate(187,389)"/>
<path d="M0 0 C0.33 0 0.66 0 1 0 C1.13277344 0.67546875 1.26554688 1.3509375 1.40234375 2.046875 C1.57894531 2.93890625 1.75554687 3.8309375 1.9375 4.75 C2.19853516 6.07257813 2.19853516 6.07257813 2.46484375 7.421875 C2.9565037 9.94929651 2.9565037 9.94929651 3.625 12.1875 C4.13936245 14.67358516 3.28423608 15.88478763 2 18 C1.34 17.01 0.68 16.02 0 15 C-0.99 15.495 -0.99 15.495 -2 16 C-1.33333333 10.66666667 -0.66666667 5.33333333 0 0 Z " fill="#7F7534" transform="translate(254,354)"/>
<path d="M0 0 C0.99 0.33 1.98 0.66 3 1 C3 1.99 3 2.98 3 4 C3.99 3.67 4.98 3.34 6 3 C6.125 5.375 6.125 5.375 6 8 C3.4345406 10.5654594 1.52313332 10.54046087 -2 11 C-1.690625 10.2575 -1.38125 9.515 -1.0625 8.75 C-0.18430031 6.47701257 0.58676753 4.3967483 1 2 C0.67 1.34 0.34 0.68 0 0 Z " fill="#988530" transform="translate(222,335)"/>
<path d="M0 0 C1.32 0.33 2.64 0.66 4 1 C3.67 4.3 3.34 7.6 3 11 C0 10 0 10 -1.3125 7.75 C-2.1459454 4.4162184 -1.54409789 3.00241256 0 0 Z " fill="#B7A43E" transform="translate(198,335)"/>
<path d="M0 0 C0.99 0.33 1.98 0.66 3 1 C4.76776276 5.25743911 3.2040323 8.75047422 2 13 C0.4375 11.875 0.4375 11.875 -1 10 C-0.6875 6.8125 -0.6875 6.8125 0 4 C-0.99 4.66 -1.98 5.32 -3 6 C-2.625 3.5625 -2.625 3.5625 -2 1 C-1.34 0.67 -0.68 0.34 0 0 Z " fill="#8E8341" transform="translate(240,297)"/>
<path d="M0 0 C0.66 0 1.32 0 2 0 C3.00109515 3.31070838 3.10356134 6.30084769 3.0625 9.75 C3.05347656 10.73484375 3.04445313 11.7196875 3.03515625 12.734375 C3.02355469 13.48203125 3.01195313 14.2296875 3 15 C2.01 15.33 1.02 15.66 0 16 C0 10.72 0 5.44 0 0 Z " fill="#B7A248" transform="translate(101,294)"/>
<path d="M0 0 C1.67542976 0.28604898 3.34385343 0.61781233 5 1 C5 2.98 5 4.96 5 7 C3.68 7.33 2.36 7.66 1 8 C0.67 7.01 0.34 6.02 0 5 C-0.99 5.33 -1.98 5.66 -3 6 C-1.125 1.125 -1.125 1.125 0 0 Z " fill="#9E9139" transform="translate(273,291)"/>
<path d="M0 0 C2 3 2 3 2 6 C1.34 6 0.68 6 0 6 C-0.21081851 9.89459074 -0.21081851 9.89459074 1 13 C-1.64 13.33 -4.28 13.66 -7 14 C-4.69 9.38 -2.38 4.76 0 0 Z " fill="#93863A" transform="translate(117,340)"/>
<path d="M0 0 C0.66 0 1.32 0 2 0 C2.185625 0.9590625 2.185625 0.9590625 2.375 1.9375 C2.684375 2.9584375 2.684375 2.9584375 3 4 C3.66 4.33 4.32 4.66 5 5 C4.67 6.65 4.34 8.3 4 10 C3.01 10.33 2.02 10.66 1 11 C0.34 10.34 -0.32 9.68 -1 9 C-0.9765625 6.8359375 -0.9765625 6.8359375 -0.625 4.375 C-0.51414062 3.55773437 -0.40328125 2.74046875 -0.2890625 1.8984375 C-0.19367188 1.27195312 -0.09828125 0.64546875 0 0 Z " fill="#E3E3E3" transform="translate(295,385)"/>
<path d="M0 0 C2.8293078 2.8293078 2.73345379 5.06844341 3 9 C2.0625 11.9375 2.0625 11.9375 1 14 C0.67 14 0.34 14 0 14 C0 12.02 0 10.04 0 8 C-0.66 8 -1.32 8 -2 8 C-1.34 5.36 -0.68 2.72 0 0 Z M3 6 C4.32 6 5.64 6 7 6 C6.67 7.65 6.34 9.3 6 11 C5.87625 10.360625 5.7525 9.72125 5.625 9.0625 C5.315625 8.0415625 5.315625 8.0415625 5 7 C4.34 6.67 3.68 6.34 3 6 Z " fill="#988434" transform="translate(129,298)"/>
<path d="M0 0 C0.103125 0.639375 0.20625 1.27875 0.3125 1.9375 C0.539375 2.618125 0.76625 3.29875 1 4 C1.99 4.33 2.98 4.66 4 5 C3.88541307 6.43836751 3.75790884 7.87570966 3.625 9.3125 C3.55539062 10.11300781 3.48578125 10.91351563 3.4140625 11.73828125 C3 14 3 14 1 17 C1 15.68 1 14.36 1 13 C0.34 13 -0.32 13 -1 13 C-1 12.34 -1 11.68 -1 11 C-2.32 10.67 -3.64 10.34 -5 10 C-1.535 9.505 -1.535 9.505 2 9 C2.33 8.01 2.66 7.02 3 6 C1.68 6.33 0.36 6.66 -1 7 C-0.67 4.69 -0.34 2.38 0 0 Z " fill="#949897" transform="translate(296,372)"/>
<path d="M0 0 C0.33 1.32 0.66 2.64 1 4 C1.66 4 2.32 4 3 4 C3 3.34 3 2.68 3 2 C3.66 2 4.32 2 5 2 C5 3.32 5 4.64 5 6 C4.2575 6 3.515 6 2.75 6 C-0.56830714 7.20665714 -0.80059811 7.98992519 -2.3125 11.0625 C-2.89266121 12.36728944 -3.46085342 13.67773548 -4 15 C-4.33 15 -4.66 15 -5 15 C-5 13.02 -5 11.04 -5 9 C-4.34 9 -3.68 9 -3 9 C-2.01 6.03 -1.02 3.06 0 0 Z " fill="#AFA044" transform="translate(236,306)"/>
<path d="M0 0 C1.32 0.33 2.64 0.66 4 1 C3.6875 3.875 3.6875 3.875 3 7 C2.01 7.66 1.02 8.32 0 9 C-0.66 8.67 -1.32 8.34 -2 8 C-1.125 2.25 -1.125 2.25 0 0 Z " fill="#9B903F" transform="translate(107,358)"/>
<path d="M0 0 C1.21816406 0.03480469 1.21816406 0.03480469 2.4609375 0.0703125 C3.68683594 0.09738281 3.68683594 0.09738281 4.9375 0.125 C5.87722656 0.15980469 5.87722656 0.15980469 6.8359375 0.1953125 C7.4959375 1.5153125 8.1559375 2.8353125 8.8359375 4.1953125 C7.04459772 4.24923243 5.25279851 4.28806821 3.4609375 4.3203125 C2.46320313 4.34351563 1.46546875 4.36671875 0.4375 4.390625 C-2.1640625 4.1953125 -2.1640625 4.1953125 -4.1640625 2.1953125 C-2.1640625 0.1953125 -2.1640625 0.1953125 0 0 Z " fill="#A89D48" transform="translate(320.1640625,275.8046875)"/>
<path d="M0 0 C1.04005702 3.38018531 1.08004482 6.4780279 1 10 C-2.52032428 10 -3.4385343 9.29648649 -6 7 C-6 6.34 -6 5.68 -6 5 C-4.04072937 3.2856382 -2.04119788 1.61594832 0 0 Z " fill="#958939" transform="translate(194,352)"/>
<path d="M0 0 C0.66 0 1.32 0 2 0 C2.33 0.99 2.66 1.98 3 3 C-1.46236352 7.12768625 -5.2210129 9.10688354 -11 11 C-11 9.68 -11 8.36 -11 7 C-9.02 7 -7.04 7 -5 7 C-5 6.34 -5 5.68 -5 5 C-3.68212715 3.97971135 -2.34789347 2.98028616 -1 2 C-0.67 1.34 -0.34 0.68 0 0 Z " fill="#827D37" transform="translate(357,327)"/>
<path d="M0 0 C-3.74525799 3.74525799 -7.98270909 3.68909949 -13 4 C-10.6984127 -0.72431078 -10.6984127 -0.72431078 -7.625 -1.9375 C-4.60399747 -2.00942863 -2.69862235 -1.31075943 0 0 Z " fill="#C5CAC8" transform="translate(299,354)"/>
<path d="M0 0 C2.66666667 1.33333333 5.33333333 2.66666667 8 4 C6.35 4 4.7 4 3 4 C3 5.65 3 7.3 3 9 C2.01 9 1.02 9 0 9 C0 9.66 0 10.32 0 11 C-1.98 11 -3.96 11 -6 11 C-6 10.01 -6 9.02 -6 8 C-4.02 8 -2.04 8 0 8 C0 7.34 0 6.68 0 6 C0.66 6 1.32 6 2 6 C2 5.34 2 4.68 2 4 C1.34 4 0.68 4 0 4 C0 2.68 0 1.36 0 0 Z " fill="#726D32" transform="translate(330,305)"/>
<path d="M0 0 C2.0625 0.4375 2.0625 0.4375 4 1 C3.38722388 3.96175123 2.74627478 5.38058783 1 8 C-0.32 7.34 -1.64 6.68 -3 6 C-1.125 1.125 -1.125 1.125 0 0 Z " fill="#9B8C3E" transform="translate(91,293)"/>
<path d="M0 0 C0.93423645 3.01031744 1.04449911 3.86650268 0 7 C0.99 7.66 1.98 8.32 3 9 C1.68 9 0.36 9 -1 9 C-1.12375 9.639375 -1.2475 10.27875 -1.375 10.9375 C-1.58125 11.618125 -1.7875 12.29875 -2 13 C-2.99 13.495 -2.99 13.495 -4 14 C-4 13.01 -4 12.02 -4 11 C-4.66 10.67 -5.32 10.34 -6 10 C-5.566875 9.649375 -5.13375 9.29875 -4.6875 8.9375 C-2.31641544 6.21514365 -1.3283165 3.35241784 0 0 Z " fill="#A6A6A6" transform="translate(304,379)"/>
<path d="M0 0 C0.66 0 1.32 0 2 0 C2 0.66 2 1.32 2 2 C2.66 2 3.32 2 4 2 C4 5.3 4 8.6 4 12 C3.67 11.01 3.34 10.02 3 9 C0.99983534 7.79117904 0.99983534 7.79117904 -1 7 C-0.67 4.69 -0.34 2.38 0 0 Z " fill="#BCAD53" transform="translate(221,364)"/>
<path d="M0 0 C0.28875 0.639375 0.5775 1.27875 0.875 1.9375 C1.82823451 4.15206079 1.82823451 4.15206079 4 5 C5.32 5 6.64 5 8 5 C8.125 8.375 8.125 8.375 8 12 C7.34 12.66 6.68 13.32 6 14 C6 12.02 6 10.04 6 8 C4.02 8.99 4.02 8.99 2 10 C2 9.01 2 8.02 2 7 C1.34 7 0.68 7 0 7 C0 4.69 0 2.38 0 0 Z " fill="#786526" transform="translate(216,344)"/>
<path d="M0 0 C0.66 0.33 1.32 0.66 2 1 C1.79375 1.61875 1.5875 2.2375 1.375 2.875 C1.25125 3.57625 1.1275 4.2775 1 5 C1.66 5.66 2.32 6.32 3 7 C0.03 9.475 0.03 9.475 -3 12 C-3 11.34 -3 10.68 -3 10 C-3.66 10 -4.32 10 -5 10 C-5 9.34 -5 8.68 -5 8 C-3.35 8 -1.7 8 0 8 C0 7.34 0 6.68 0 6 C-1.32 6 -2.64 6 -4 6 C-4 4 -4 4 -2 1.875 C-1.34 1.25625 -0.68 0.6375 0 0 Z " fill="#877C31" transform="translate(240,339)"/>
<path d="M0 0 C1.32 0 2.64 0 4 0 C4.33 0.99 4.66 1.98 5 3 C6.65 3 8.3 3 10 3 C6.46813168 5.15059309 3.33712007 5.3797728 -0.75 5.625 C-1.92046875 5.69976562 -3.0909375 5.77453125 -4.296875 5.8515625 C-5.18890625 5.90054687 -6.0809375 5.94953125 -7 6 C-7 5.67 -7 5.34 -7 5 C-5.02 4.67 -3.04 4.34 -1 4 C-0.67 2.68 -0.34 1.36 0 0 Z " fill="#78702F" transform="translate(326,342)"/>
<path d="M0 0 C2.475 0.99 2.475 0.99 5 2 C4 10.57142857 4 10.57142857 3 14 C2.34 14 1.68 14 1 14 C1.01740234 13.11248047 1.01740234 13.11248047 1.03515625 12.20703125 C1.08322386 7.99768215 1.06006883 4.1077667 0 0 Z " fill="#B9A943" transform="translate(356,311)"/>
<path d="M0 0 C1.65 0.33 3.3 0.66 5 1 C4.39816251 3.02045442 3.72693904 5.02111039 3 7 C2.01 7.495 2.01 7.495 1 8 C0.01 7.01 -0.98 6.02 -2 5 C-1.34 3.35 -0.68 1.7 0 0 Z " fill="#B7B9B8" transform="translate(337,373)"/>
<path d="M0 0 C0.66 0 1.32 0 2 0 C2 1.65 2 3.3 2 5 C1.34 5 0.68 5 0 5 C0.061875 6.423125 0.061875 6.423125 0.125 7.875 C0 11 0 11 -2 13 C-3.1171875 11.296875 -3.1171875 11.296875 -4 9 C-3.3203125 6.640625 -3.3203125 6.640625 -2.125 4.25 C-1.73570312 3.45078125 -1.34640625 2.6515625 -0.9453125 1.828125 C-0.63335937 1.22484375 -0.32140625 0.6215625 0 0 Z " fill="#A49643" transform="translate(189,335)"/>
<path d="M0 0 C0.99 0 1.98 0 3 0 C2.91253716 1.43861294 2.80434652 2.87597508 2.6875 4.3125 C2.62949219 5.11300781 2.57148438 5.91351563 2.51171875 6.73828125 C1.91793306 9.36272334 1.04219706 10.30820672 -1 12 C-1.14285714 3.42857143 -1.14285714 3.42857143 0 0 Z " fill="#A79642" transform="translate(126,306)"/>
<path d="M0 0 C0.99 0 1.98 0 3 0 C2.67 1.65 2.34 3.3 2 5 C1.34 5 0.68 5 0 5 C0 6.32 0 7.64 0 9 C0.66 9 1.32 9 2 9 C2 9.66 2 10.32 2 11 C-0.475 10.01 -0.475 10.01 -3 9 C-3 7.68 -3 6.36 -3 5 C-2.34 5 -1.68 5 -1 5 C-0.67 3.35 -0.34 1.7 0 0 Z " fill="#918D4A" transform="translate(330,300)"/>
<path d="M0 0 C0.66 0.33 1.32 0.66 2 1 C2.40729228 3.32156597 2.74438677 5.6568787 3 8 C2.67 7.01 2.34 6.02 2 5 C1.01 5 0.02 5 -1 5 C-1 9.62 -1 14.24 -1 19 C-1.33 19 -1.66 19 -2 19 C-2.06058594 18.01257813 -2.12117188 17.02515625 -2.18359375 16.0078125 C-2.26738281 14.72648437 -2.35117188 13.44515625 -2.4375 12.125 C-2.51871094 10.84882813 -2.59992188 9.57265625 -2.68359375 8.2578125 C-2.79206027 5.11699848 -2.79206027 5.11699848 -4 3 C-2.68 2.67 -1.36 2.34 0 2 C0 1.34 0 0.68 0 0 Z " fill="#544A1E" transform="translate(102,289)"/>
<path d="M0 0 C0.66 0.66 1.32 1.32 2 2 C1.96712417 4.72869407 1.43602229 7.2966618 1 10 C0.01 10 -0.98 10 -2 10 C-2 9.34 -2 8.68 -2 8 C-2.66 8 -3.32 8 -4 8 C-3.67 6.68 -3.34 5.36 -3 4 C-2.01 4.33 -1.02 4.66 0 5 C0 3.35 0 1.7 0 0 Z " fill="#A2923E" transform="translate(225,356)"/>
<path d="M0 0 C0.33 0 0.66 0 1 0 C1 5.94 1 11.88 1 18 C0.67 18 0.34 18 0 18 C-0.22786458 15.94921875 -0.45572917 13.8984375 -0.68359375 11.84765625 C-0.81886614 9.98859771 -0.81886614 9.98859771 -2 9 C-2.26293056 4.96839809 -2.29404844 3.44107266 0 0 Z " fill="#B39E3F" transform="translate(74,342)"/>
<path d="M0 0 C0.66 0 1.32 0 2 0 C2 0.66 2 1.32 2 2 C2.99 2 3.98 2 5 2 C5.66 2.66 6.32 3.32 7 4 C7.66 4.33 8.32 4.66 9 5 C8.67 5.66 8.34 6.32 8 7 C4.17902761 6.46930939 1.93828597 5.50298434 -1 3 C-0.67 2.01 -0.34 1.02 0 0 Z " fill="#A79D4A" transform="translate(302,338)"/>
<path d="M0 0 C1.60875 0.5878125 1.60875 0.5878125 3.25 1.1875 C2.26 1.5175 1.27 1.8475 0.25 2.1875 C0.25 2.8475 0.25 3.5075 0.25 4.1875 C-1.4 4.8475 -3.05 5.5075 -4.75 6.1875 C-4.42 5.1975 -4.09 4.2075 -3.75 3.1875 C-5.07 2.8575 -6.39 2.5275 -7.75 2.1875 C-4.89394414 -0.7827981 -4.16493458 -0.90240249 0 0 Z " fill="#766D32" transform="translate(305.75,281.8125)"/>
<path d="M0 0 C0.33 0 0.66 0 1 0 C1 2.31 1 4.62 1 7 C1.99 6.67 2.98 6.34 4 6 C3.67 7.65 3.34 9.3 3 11 C2.34 10.67 1.68 10.34 1 10 C-0.32 10.33 -1.64 10.66 -3 11 C-2.01 7.37 -1.02 3.74 0 0 Z " fill="#847A39" transform="translate(191,372)"/>
<path d="M0 0 C1.65 0.33 3.3 0.66 5 1 C5 1.99 5 2.98 5 4 C1.7 4.66 -1.6 5.32 -5 6 C-4.34 5.34 -3.68 4.68 -3 4 C-3.99 3.34 -4.98 2.68 -6 2 C-4.02 2 -2.04 2 0 2 C0 1.34 0 0.68 0 0 Z " fill="#BDC0B4" transform="translate(312,346)"/>
<path d="M0 0 C8.19256018 -0.4726477 8.19256018 -0.4726477 11.5625 1.5 C12.036875 1.995 12.51125 2.49 13 3 C9.72814447 4.07310858 7.57052408 3.89263102 4.25 3.0625 C3.45078125 2.86785156 2.6515625 2.67320312 1.828125 2.47265625 C1.22484375 2.31667969 0.6215625 2.16070312 0 2 C0 1.34 0 0.68 0 0 Z " fill="#B19F2F" transform="translate(332,333)"/>
<path d="M0 0 C0.99 1.485 0.99 1.485 2 3 C2.99 2.67 3.98 2.34 5 2 C4.88541307 3.43836751 4.75790884 4.87570966 4.625 6.3125 C4.55539062 7.11300781 4.48578125 7.91351563 4.4140625 8.73828125 C4 11 4 11 2 14 C2 11.69 2 9.38 2 7 C1.34 7 0.68 7 0 7 C0 4.69 0 2.38 0 0 Z " fill="#8C7D3E" transform="translate(261,324)"/>
<path d="M0 0 C0.33 0.99 0.66 1.98 1 3 C-1.48434437 5.34290892 -2.77731593 5.97982934 -6.234375 6.29296875 C-7.39453125 6.25816406 -8.5546875 6.22335937 -9.75 6.1875 C-10.92046875 6.16042969 -12.0909375 6.13335937 -13.296875 6.10546875 C-14.18890625 6.07066406 -15.0809375 6.03585937 -16 6 C-16 5.34 -16 4.68 -16 4 C-12.04 4 -8.08 4 -4 4 C-3.67 3.34 -3.34 2.68 -3 2 C-2.01 2 -1.02 2 0 2 C0 1.34 0 0.68 0 0 Z " fill="#96892A" transform="translate(328,302)"/>
<path d="M0 0 C1.32 1.32 2.64 2.64 4 4 C3.67 4.99 3.34 5.98 3 7 C0.36 7.33 -2.28 7.66 -5 8 C-2 6 -2 6 0 6 C-0.99 4.68 -1.98 3.36 -3 2 C-2.01 1.34 -1.02 0.68 0 0 Z " fill="#7B742D" transform="translate(252,347)"/>
<path d="M0 0 C0.99 0.33 1.98 0.66 3 1 C2.01 1.33 1.02 1.66 0 2 C0.18433594 2.56203125 0.36867188 3.1240625 0.55859375 3.703125 C1.07352759 6.38260374 0.72113422 8.11546311 0.0625 10.75 C-0.22947266 11.94882812 -0.22947266 11.94882812 -0.52734375 13.171875 C-0.68332031 13.77515625 -0.83929688 14.3784375 -1 15 C-1.66 14.67 -2.32 14.34 -3 14 C-3.34615998 8.34605369 -2.43425238 4.96993194 0 0 Z " fill="#7D7235" transform="translate(269,335)"/>
<path d="M0 0 C1.98 0 3.96 0 6 0 C5.67 3.3 5.34 6.6 5 10 C4.67 10 4.34 10 4 10 C4 7.36 4 4.72 4 2 C2.68 2.99 1.36 3.98 0 5 C-0.33 4.01 -0.66 3.02 -1 2 C-0.67 1.34 -0.34 0.68 0 0 Z " fill="#8C8141" transform="translate(133,291)"/>
<path d="M0 0 C0.33 0.66 0.66 1.32 1 2 C1.66 2 2.32 2 3 2 C2.34 3.98 1.68 5.96 1 8 C-0.65 7.67 -2.3 7.34 -4 7 C-4 6.34 -4 5.68 -4 5 C-3.34 5 -2.68 5 -2 5 C-1.34 3.35 -0.68 1.7 0 0 Z " fill="#ACADAD" transform="translate(323,383)"/>
<path d="M0 0 C0.33 0 0.66 0 1 0 C1 1.98 1 3.96 1 6 C1.66 6 2.32 6 3 6 C3 7.32 3 8.64 3 10 C1.35 10 -0.3 10 -2 10 C-2.22036864 6.14354879 -1.60355101 3.50776784 0 0 Z " fill="#B3A246" transform="translate(167,340)"/>
<path d="M0 0 C0.66 0 1.32 0 2 0 C2.75 2.25 2.75 2.25 3 5 C1.0625 7.3125 1.0625 7.3125 -1 9 C-1 8.34 -1 7.68 -1 7 C-1.66 6.67 -2.32 6.34 -3 6 C-2.01 4.02 -1.02 2.04 0 0 Z " fill="#A59742" transform="translate(283,338)"/>
<path d="M0 0 C1.67542976 0.28604898 3.34385343 0.61781233 5 1 C4.67 2.32 4.34 3.64 4 5 C2.68 5.33 1.36 5.66 0 6 C-0.38218767 4.34385343 -0.71395102 2.67542976 -1 1 C-0.67 0.67 -0.34 0.34 0 0 Z " fill="#78753E" transform="translate(270,328)"/>
<path d="M0 0 C0 3.55157911 -0.99418238 5.48763755 -2.5 8.6875 C-3.19609375 10.17830078 -3.19609375 10.17830078 -3.90625 11.69921875 C-4.2671875 12.45847656 -4.628125 13.21773438 -5 14 C-5.33 14 -5.66 14 -6 14 C-6 12.02 -6 10.04 -6 8 C-5.34 8 -4.68 8 -4 8 C-3.67 5.69 -3.34 3.38 -3 1 C-2.01 0.67 -1.02 0.34 0 0 Z " fill="#8A7C39" transform="translate(132,312)"/>
<path d="M0 0 C0.99 0.66 1.98 1.32 3 2 C2.01 2.495 2.01 2.495 1 3 C1.33 3.66 1.66 4.32 2 5 C2.66666667 6.33333333 3.33333333 7.66666667 4 9 C2.35 9 0.7 9 -1 9 C-1.80967438 6.08517222 -2.21845993 4.53886783 -1.0625 1.6875 C-0.711875 1.130625 -0.36125 0.57375 0 0 Z " fill="#C7CBCA" transform="translate(291,373)"/>
<path d="M0 0 C-0.99 0.66 -1.98 1.32 -3 2 C-3.99 1.34 -4.98 0.68 -6 0 C-2.25 -1.125 -2.25 -1.125 0 0 Z M-0.4375 1.9375 C0.696875 1.958125 1.83125 1.97875 3 2 C3 3.98 3 5.96 3 8 C1.68 7.34 0.36 6.68 -1 6 C-1 5.34 -1 4.68 -1 4 C-2.32 3.67 -3.64 3.34 -5 3 C-4 2 -4 2 -0.4375 1.9375 Z " fill="#949795" transform="translate(289,355)"/>
<path d="M0 0 C1.231394 3.69418201 0.64432764 6.2056261 0 10 C-0.33 9.01 -0.66 8.02 -1 7 C-3.01508358 6.26676204 -3.01508358 6.26676204 -5 6 C-5 4.68 -5 3.36 -5 2 C-3.35 2 -1.7 2 0 2 C0 1.34 0 0.68 0 0 Z " fill="#7C7033" transform="translate(203,329)"/>
<path d="M0 0 C0.66 0 1.32 0 2 0 C3.125 6.75 3.125 6.75 2 9 C1.34 9 0.68 9 0 9 C-1.125 2.25 -1.125 2.25 0 0 Z " fill="#B0A44A" transform="translate(175,377)"/>
<path d="M0 0 C2.97 0.33 5.94 0.66 9 1 C8.34 2.32 7.68 3.64 7 5 C5.35 4.67 3.7 4.34 2 4 C2 3.34 2 2.68 2 2 C1.34 2 0.68 2 0 2 C0 1.34 0 0.68 0 0 Z " fill="#AF9D43" transform="translate(81,377)"/>
<path d="M0 0 C4.95 0 9.9 0 15 0 C15 0.33 15 0.66 15 1 C11.04 1 7.08 1 3 1 C3 1.66 3 2.32 3 3 C2.01 3 1.02 3 0 3 C0 3.66 0 4.32 0 5 C-0.99 4.67 -1.98 4.34 -3 4 C-2.34 4 -1.68 4 -1 4 C-0.67 2.68 -0.34 1.36 0 0 Z " fill="#93894A" transform="translate(312,343)"/>
<path d="M0 0 C1.625 1.6875 1.625 1.6875 3 4 C2.1875 6.75 2.1875 6.75 1 9 C0.01 9 -0.98 9 -2 9 C-1.125 1.125 -1.125 1.125 0 0 Z " fill="#A29436" transform="translate(144,339)"/>
<path d="M0 0 C0.99 0 1.98 0 3 0 C3 1.65 3 3.3 3 5 C2.01 4.67 1.02 4.34 0 4 C0 4.99 0 5.98 0 7 C-1.32 7.33 -2.64 7.66 -4 8 C-1.125 1.125 -1.125 1.125 0 0 Z " fill="#A89A41" transform="translate(218,333)"/>
<path d="M0 0 C2.31 0 4.62 0 7 0 C7.33 1.32 7.66 2.64 8 4 C5.69 3.67 3.38 3.34 1 3 C0.67 2.01 0.34 1.02 0 0 Z " fill="#A4984A" transform="translate(195,327)"/>
<path d="M0 0 C0.33 1.32 0.66 2.64 1 4 C-1.75 5.1875 -1.75 5.1875 -5 6 C-7.375 4.625 -7.375 4.625 -9 3 C-6.03 2.01 -3.06 1.02 0 0 Z " fill="#AB9C35" transform="translate(326,306)"/>
<path d="M0 0 C0.33 1.32 0.66 2.64 1 4 C2.32 3.34 3.64 2.68 5 2 C5 2.66 5 3.32 5 4 C6.65 3.67 8.3 3.34 10 3 C8.515 5.475 8.515 5.475 7 8 C5 7 5 7 4 6 C2.67405895 5.63837971 1.34061543 5.30271961 0 5 C0 3.35 0 1.7 0 0 Z " fill="#75682B" transform="translate(176,396)"/>
<path d="M0 0 C0.99 0.66 1.98 1.32 3 2 C2.67 5.3 2.34 8.6 2 12 C1.34 10.68 0.68 9.36 0 8 C-0.99 8.495 -0.99 8.495 -2 9 C-1.34 6.03 -0.68 3.06 0 0 Z " fill="#969696" transform="translate(282,387)"/>
<path d="M0 0 C2 3.75 2 3.75 2 6 C2.99 6.33 3.98 6.66 5 7 C4.67 7.99 4.34 8.98 4 10 C2.35 9.67 0.7 9.34 -1 9 C-1 8.34 -1 7.68 -1 7 C-0.34 7 0.32 7 1 7 C0.67 4.69 0.34 2.38 0 0 Z " fill="#9D9F9F" transform="translate(311,380)"/>
<path d="M0 0 C0.33 0.66 0.66 1.32 1 2 C3.02463255 2.65213292 3.02463255 2.65213292 5 3 C5 3.66 5 4.32 5 5 C4.34 5 3.68 5 3 5 C3 5.99 3 6.98 3 8 C2.01 8.33 1.02 8.66 0 9 C0 6.03 0 3.06 0 0 Z " fill="#B5A73F" transform="translate(229,324)"/>
<path d="M0 0 C0.93423645 3.01031744 1.04449911 3.86650268 0 7 C-1.32 6.67 -2.64 6.34 -4 6 C-4 4.68 -4 3.36 -4 2 C-2.68 1.34 -1.36 0.68 0 0 Z " fill="#B5A54F" transform="translate(192,381)"/>
<path d="M0 0 C0.66 0.33 1.32 0.66 2 1 C2.1875 4.375 2.1875 4.375 2 8 C1.01 8.66 0.02 9.32 -1 10 C-1.02689216 8.52093108 -1.04634621 7.04172517 -1.0625 5.5625 C-1.07410156 4.73878906 -1.08570313 3.91507812 -1.09765625 3.06640625 C-1 1 -1 1 0 0 Z " fill="#D2D2D2" transform="translate(284,380)"/>
<path d="M0 0 C0.66 0 1.32 0 2 0 C2.125 3.375 2.125 3.375 2 7 C1.34 7.66 0.68 8.32 0 9 C0 8.34 0 7.68 0 7 C-0.66 7 -1.32 7 -2 7 C-1.125 1.125 -1.125 1.125 0 0 Z " fill="#B1B3B2" transform="translate(319,376)"/>
<path d="M0 0 C-1.65 2.64 -3.3 5.28 -5 8 C-6 4 -6 4 -6 0 C-4 -1 -4 -1 0 0 Z " fill="#A4A5A4" transform="translate(312,376)"/>
<path d="M0 0 C0 0.66 0 1.32 0 2 C0.66 2.33 1.32 2.66 2 3 C1.01 3.33 0.02 3.66 -1 4 C-1 4.66 -1 5.32 -1 6 C-2.32 5.67 -3.64 5.34 -5 5 C-5 4.01 -5 3.02 -5 2 C-2 0 -2 0 0 0 Z " fill="#9E9F9B" transform="translate(275,359)"/>
<path d="M0 0 C0.99 0.33 1.98 0.66 3 1 C2.67 4.3 2.34 7.6 2 11 C1.34 10.67 0.68 10.34 0 10 C0.33 8.02 0.66 6.04 1 4 C-0.32 3.67 -1.64 3.34 -3 3 C-2.01 2.67 -1.02 2.34 0 2 C0 1.34 0 0.68 0 0 Z " fill="#958835" transform="translate(198,347)"/>
<path d="M0 0 C0.66 0 1.32 0 2 0 C2 1.65 2 3.3 2 5 C1.38125 5.28875 0.7625 5.5775 0.125 5.875 C-2.13325765 6.93720042 -2.13325765 6.93720042 -4 9 C-4 4.32409833 -3.11997802 3.30350614 0 0 Z " fill="#AF9C32" transform="translate(120,343)"/>
<path d="M0 0 C1.67542976 0.28604898 3.34385343 0.61781233 5 1 C5 1.66 5 2.32 5 3 C3.35 3 1.7 3 0 3 C0 3.66 0 4.32 0 5 C0.66 5 1.32 5 2 5 C2 5.66 2 6.32 2 7 C0.68 6.67 -0.64 6.34 -2 6 C-1.125 1.125 -1.125 1.125 0 0 Z " fill="#B6A842" transform="translate(235,344)"/>
<path d="M0 0 C0.33 0 0.66 0 1 0 C1 2.64 1 5.28 1 8 C-2.3125 9.125 -2.3125 9.125 -6 10 C-6.99 9.34 -7.98 8.68 -9 8 C-8 7 -8 7 -4.4375 6.9375 C-3.303125 6.958125 -2.16875 6.97875 -1 7 C-0.67 4.69 -0.34 2.38 0 0 Z " fill="#777232" transform="translate(228,324)"/>
<path d="M0 0 C0.33 0 0.66 0 1 0 C1.29296875 6.0546875 1.29296875 6.0546875 1 8 C0.01 8.66 -0.98 9.32 -2 10 C-2.1953125 3.9453125 -2.1953125 3.9453125 -2 2 C-1.34 1.34 -0.68 0.68 0 0 Z " fill="#DCDEDD" transform="translate(349,368)"/>
<path d="M0 0 C-0.33 1.65 -0.66 3.3 -1 5 C-2.65 5 -4.3 5 -6 5 C-5.625 3.0625 -5.625 3.0625 -5 1 C-3 0 -3 0 0 0 Z " fill="#A5963D" transform="translate(208,344)"/>
<path d="M0 0 C1.66666667 0 3.33333333 0 5 0 C4.25 2.4375 4.25 2.4375 3 5 C0.875 5.8125 0.875 5.8125 -1 6 C-1.042721 4.33388095 -1.04063832 2.66617115 -1 1 C-0.67 0.67 -0.34 0.34 0 0 Z " fill="#AE9B34" transform="translate(172,342)"/>
<path d="M0 0 C2.2109885 0.42793326 3.98119242 0.99059621 6 2 C6 2.66 6 3.32 6 4 C4.35 4.33 2.7 4.66 1 5 C0.34 3.68 -0.32 2.36 -1 1 C-0.67 0.67 -0.34 0.34 0 0 Z " fill="#7C7542" transform="translate(296,297)"/>
<path d="M0 0 C1.98 0.99 3.96 1.98 6 3 C5.67 3.66 5.34 4.32 5 5 C3.02 5 1.04 5 -1 5 C-1 2 -1 2 0 0 Z " fill="#AEAEAE" transform="translate(335,386)"/>
<path d="M0 0 C0.99 0 1.98 0 3 0 C3 2.64 3 5.28 3 8 C2.01 8.33 1.02 8.66 0 9 C0 6.03 0 3.06 0 0 Z " fill="#BBAE4C" transform="translate(192,370)"/>
<path d="M0 0 C0.33 0.66 0.66 1.32 1 2 C0.34 2 -0.32 2 -1 2 C-1.33 3.65 -1.66 5.3 -2 7 C-2.99 7 -3.98 7 -5 7 C-4.75 4.625 -4.75 4.625 -4 2 C-1.9375 0.6875 -1.9375 0.6875 0 0 Z " fill="#A2923B" transform="translate(99,371)"/>
<path d="M0 0 C0.99 0 1.98 0 3 0 C2.67 2.31 2.34 4.62 2 7 C1.01 7.33 0.02 7.66 -1 8 C-1.125 2.25 -1.125 2.25 0 0 Z " fill="#BFB04F" transform="translate(253,368)"/>
<path d="M0 0 C0.66 0.33 1.32 0.66 2 1 C1.67 2.32 1.34 3.64 1 5 C0.34 5 -0.32 5 -1 5 C-1 5.66 -1 6.32 -1 7 C-1.66 7 -2.32 7 -3 7 C-3 5.02 -3 3.04 -3 1 C-2.01 0.67 -1.02 0.34 0 0 Z " fill="#B49F38" transform="translate(198,350)"/>
<path d="M0 0 C0.66 1.32 1.32 2.64 2 4 C-2.75 7 -2.75 7 -5 7 C-5 5.02 -5 3.04 -5 1 C-4.01 1.33 -3.02 1.66 -2 2 C-2 2.66 -2 3.32 -2 4 C-1.34 4 -0.68 4 0 4 C0 2.68 0 1.36 0 0 Z " fill="#887E31" transform="translate(247,332)"/>
<path d="M0 0 C0.66 0.66 1.32 1.32 2 2 C1.63723355 4.82957829 0.90305236 7.29084291 0 10 C-0.66 10 -1.32 10 -2 10 C-2.6875 6.6875 -2.6875 6.6875 -3 3 C-1.5625 1.0625 -1.5625 1.0625 0 0 Z " fill="#8B7F36" transform="translate(354,297)"/>
<path d="M0 0 C1.32 0.99 2.64 1.98 4 3 C3.34 4.98 2.68 6.96 2 9 C1.67 9 1.34 9 1 9 C1 7.35 1 5.7 1 4 C0.01 4.33 -0.98 4.66 -2 5 C-1.34 3.35 -0.68 1.7 0 0 Z " fill="#7A6E2F" transform="translate(87,298)"/>
<path d="M0 0 C1.98 0.495 1.98 0.495 4 1 C3.6875 3.875 3.6875 3.875 3 7 C2.01 7.66 1.02 8.32 0 9 C-1.10844919 5.67465243 -0.84454356 3.37817425 0 0 Z " fill="#908437" transform="translate(172,392)"/>
<path d="M0 0 C0.33 0 0.66 0 1 0 C1.144375 0.94875 1.28875 1.8975 1.4375 2.875 C1.82935399 5.8934494 1.82935399 5.8934494 3 8 C2.0625 10.125 2.0625 10.125 1 12 C1 11.01 1 10.02 1 9 C0.34 9 -0.32 9 -1 9 C-1 9.66 -1 10.32 -1 11 C-1.66 10.67 -2.32 10.34 -3 10 C-2.34 9.01 -1.68 8.02 -1 7 C-0.60612212 4.67612053 -0.26513915 2.34206251 0 0 Z " fill="#7E7E7E" transform="translate(346,371)"/>
<path d="M0 0 C2 2 2 2 2.125 5.125 C2.08375 6.07375 2.0425 7.0225 2 8 C1.34 8 0.68 8 0 8 C-0.33 8.66 -0.66 9.32 -1 10 C-1.125 2.25 -1.125 2.25 0 0 Z " fill="#E3E4E3" transform="translate(289,359)"/>
<path d="M0 0 C0.33 0 0.66 0 1 0 C1.33 2.64 1.66 5.28 2 8 C1.01 8.495 1.01 8.495 0 9 C0.99 9.66 1.98 10.32 3 11 C1.68 11 0.36 11 -1 11 C-1.33 11.66 -1.66 12.32 -2 13 C-2.23509196 8.18061476 -1.45184478 4.53701494 0 0 Z " fill="#756926" transform="translate(157,337)"/>
<path d="M0 0 C9.41002278 -0.18451025 9.41002278 -0.18451025 14 1 C13.34 2.32 12.68 3.64 12 5 C11.67 4.01 11.34 3.02 11 2 C7.37 1.67 3.74 1.34 0 1 C0 0.67 0 0.34 0 0 Z " fill="#5B4720" transform="translate(331,337)"/>
<path d="M0 0 C0.33 1.32 0.66 2.64 1 4 C0.67 3.34 0.34 2.68 0 2 C-2.31 2 -4.62 2 -7 2 C-7.33 1.34 -7.66 0.68 -8 0 C-4.71023192 -1.09658936 -3.28696233 -0.79953138 0 0 Z " fill="#79702C" transform="translate(321,311)"/>
<path d="M0 0 C0.99 0.33 1.98 0.66 3 1 C2.67 3.31 2.34 5.62 2 8 C1.67 7.34 1.34 6.68 1 6 C0.34 6 -0.32 6 -1 6 C-1.042721 4.33388095 -1.04063832 2.66617115 -1 1 C-0.67 0.67 -0.34 0.34 0 0 Z " fill="#ACA248" transform="translate(351,294)"/>
<path d="M0 0 C0.33 1.32 0.66 2.64 1 4 C1.66 4 2.32 4 3 4 C2.67 5.65 2.34 7.3 2 9 C1.01 8.67 0.02 8.34 -1 8 C-0.67 5.36 -0.34 2.72 0 0 Z " fill="#C3C4C3" transform="translate(341,397)"/>
<path d="M0 0 C0.99 0 1.98 0 3 0 C2.67 1.98 2.34 3.96 2 6 C1.01 6 0.02 6 -1 6 C-1.042721 4.33388095 -1.04063832 2.66617115 -1 1 C-0.67 0.67 -0.34 0.34 0 0 Z " fill="#AE9E42" transform="translate(253,377)"/>
<path d="M0 0 C0.33 0 0.66 0 1 0 C1.125 7.75 1.125 7.75 0 10 C-0.66 10 -1.32 10 -2 10 C-2.25 3.375 -2.25 3.375 0 0 Z " fill="#B9A84A" transform="translate(78,326)"/>
<path d="M0 0 C0.33 0.99 0.66 1.98 1 3 C2.32 2.34 3.64 1.68 5 1 C5 2.98 5 4.96 5 7 C3 7 3 7 1.375 5.5 C0.92125 5.005 0.4675 4.51 0 4 C-0.33 4.66 -0.66 5.32 -1 6 C-0.67 4.02 -0.34 2.04 0 0 Z " fill="#696323" transform="translate(351,320)"/>
<path d="M0 0 C0.99 0.33 1.98 0.66 3 1 C1.95125002 3.62187494 1.35068687 4.79371361 -1.125 6.25 C-1.74375 6.4975 -2.3625 6.745 -3 7 C-2.67 5.35 -2.34 3.7 -2 2 C-1.34 2 -0.68 2 0 2 C0 1.34 0 0.68 0 0 Z " fill="#776C31" transform="translate(100,371)"/>
<path d="M0 0 C0.33 0 0.66 0 1 0 C1.33 3.96 1.66 7.92 2 12 C1.01 12.495 1.01 12.495 0 13 C-1.29676812 8.38926889 -0.71109139 4.66159911 0 0 Z " fill="#A48D3C" transform="translate(254,354)"/>
<path d="M0 0 C0.66 0 1.32 0 2 0 C2 0.66 2 1.32 2 2 C2.66 2.33 3.32 2.66 4 3 C3.34 4.32 2.68 5.64 2 7 C0.68 6.34 -0.64 5.68 -2 5 C-1.34 4.67 -0.68 4.34 0 4 C0 2.68 0 1.36 0 0 Z " fill="#8C853B" transform="translate(147,345)"/>
<path d="M0 0 C0.99 0 1.98 0 3 0 C3 2.64 3 5.28 3 8 C2.34 8 1.68 8 1 8 C1 6.35 1 4.7 1 3 C0.34 2.67 -0.32 2.34 -1 2 C-0.67 1.34 -0.34 0.68 0 0 Z " fill="#7A6C2D" transform="translate(151,332)"/>
<path d="M0 0 C2.475 0.495 2.475 0.495 5 1 C4.67 2.32 4.34 3.64 4 5 C3.01 5 2.02 5 1 5 C0.67 3.35 0.34 1.7 0 0 Z " fill="#B6A23B" transform="translate(224,334)"/>
<path d="M0 0 C0.66 1.32 1.32 2.64 2 4 C0.68 5.32 -0.64 6.64 -2 8 C-2.99 7.67 -3.98 7.34 -5 7 C-4.34 6.01 -3.68 5.02 -3 4 C-2.34 4 -1.68 4 -1 4 C-0.67 2.68 -0.34 1.36 0 0 Z " fill="#AEA143" transform="translate(294,328)"/>
<path d="M0 0 C2.02907167 3.3146667 2.12742133 5.4315979 1.625 9.25 C1.51414062 10.14203125 1.40328125 11.0340625 1.2890625 11.953125 C1.19367188 12.62859375 1.09828125 13.3040625 1 14 C0.67 14 0.34 14 0 14 C-0.19627391 12.41773035 -0.38165538 10.83410729 -0.5625 9.25 C-0.66691406 8.36828125 -0.77132813 7.4865625 -0.87890625 6.578125 C-0.99456676 4.11567549 -0.73638695 2.33461936 0 0 Z " fill="#877D38" transform="translate(361,313)"/>
<path d="M0 0 C0.33 0.99 0.66 1.98 1 3 C0.67 3.66 0.34 4.32 0 5 C-0.66 5 -1.32 5 -2 5 C-2 5.99 -2 6.98 -2 8 C-2.99 7.67 -3.98 7.34 -5 7 C-4.6875 5.0625 -4.6875 5.0625 -4 3 C-3.01 2.67 -2.02 2.34 -1 2 C-0.67 1.34 -0.34 0.68 0 0 Z " fill="#B4A439" transform="translate(272,306)"/>
<path d="M0 0 C1.65 0 3.3 0 5 0 C4.67 1.32 4.34 2.64 4 4 C3.01 4 2.02 4 1 4 C1 4.66 1 5.32 1 6 C0.01 5.67 -0.98 5.34 -2 5 C-1.34 3.35 -0.68 1.7 0 0 Z " fill="#BDAB48" transform="translate(272,298)"/>
<path d="M0 0 C2 1.375 2 1.375 4 3 C4 3.66 4 4.32 4 5 C2.02 5.33 0.04 5.66 -2 6 C-1.49396008 3.83125748 -1.00016187 2.00032373 0 0 Z " fill="#94893C" transform="translate(183,394)"/>
<path d="M0 0 C0.33 0 0.66 0 1 0 C0.67 3.3 0.34 6.6 0 10 C-3 6 -3 6 -2.6875 3.75 C-2.460625 3.1725 -2.23375 2.595 -2 2 C-2 2.66 -2 3.32 -2 4 C-1.34 4 -0.68 4 0 4 C0 2.68 0 1.36 0 0 Z " fill="#9B9D9C" transform="translate(287,374)"/>
<path d="M0 0 C1.57035335 2.49409061 2.0274945 3.70443416 1.75 6.6875 C1.5025 7.450625 1.255 8.21375 1 9 C0.01 9.495 0.01 9.495 -1 10 C-0.979375 9.071875 -0.95875 8.14375 -0.9375 7.1875 C-0.84230396 3.97713989 -0.84230396 3.97713989 -2 1 C-1.34 0.67 -0.68 0.34 0 0 Z " fill="#7B6E31" transform="translate(124,343)"/>
<path d="M0 0 C1.98 0 3.96 0 6 0 C6 0.99 6 1.98 6 3 C4.02 3.33 2.04 3.66 0 4 C0 2.68 0 1.36 0 0 Z " fill="#ADA048" transform="translate(330,342)"/>
<path d="M0 0 C1.5 1.125 1.5 1.125 3 3 C3.1875 6.1875 3.1875 6.1875 3 9 C2.67 8.34 2.34 7.68 2 7 C1.34 7 0.68 7 0 7 C0 4.69 0 2.38 0 0 Z " fill="#B9AC4C" transform="translate(122,324)"/>
<path d="M0 0 C0 0.99 0 1.98 0 3 C-1.98 3 -3.96 3 -6 3 C-6 2.01 -6 1.02 -6 0 C-3 -1 -3 -1 0 0 Z " fill="#837C49" transform="translate(336,314)"/>
<path d="M0 0 C0.66 0 1.32 0 2 0 C2 2.31 2 4.62 2 7 C1.67 6.34 1.34 5.68 1 5 C0.34 5 -0.32 5 -1 5 C-1.33 5.66 -1.66 6.32 -2 7 C-2.125 4.625 -2.125 4.625 -2 2 C-1.34 1.34 -0.68 0.68 0 0 Z " fill="#B7A44E" transform="translate(102,311)"/>
<path d="M0 0 C2 0 2 0 3.625 1.3125 C5 3 5 3 5 6 C3.35 5.67 1.7 5.34 0 5 C0 3.35 0 1.7 0 0 Z " fill="#C0C0C0" transform="translate(315,388)"/>
<path d="M0 0 C1.32 0 2.64 0 4 0 C4 0.66 4 1.32 4 2 C4.99 2 5.98 2 7 2 C6.67 2.99 6.34 3.98 6 5 C3 5 3 5 1.3125 3.625 C0 2 0 2 0 0 Z " fill="#877F2F" transform="translate(188,357)"/>
<path d="M0 0 C0.99 0.33 1.98 0.66 3 1 C2.67 2.32 2.34 3.64 2 5 C0.68 4.67 -0.64 4.34 -2 4 C-2 3.01 -2 2.02 -2 1 C-1.34 0.67 -0.68 0.34 0 0 Z " fill="#B6A94D" transform="translate(112,353)"/>
<path d="M0 0 C1.32 0.66 2.64 1.32 4 2 C4 2.66 4 3.32 4 4 C2.02 4.33 0.04 4.66 -2 5 C-2 4.34 -2 3.68 -2 3 C-1.34 3 -0.68 3 0 3 C0 2.01 0 1.02 0 0 Z " fill="#B0A146" transform="translate(248,349)"/>
<path d="M0 0 C0.103125 0.598125 0.20625 1.19625 0.3125 1.8125 C1.08876455 4.28243264 2.07088921 5.32251235 4 7 C2.68 7.33 1.36 7.66 0 8 C0 7.01 0 6.02 0 5 C-0.99 4.67 -1.98 4.34 -3 4 C-2.01 2.68 -1.02 1.36 0 0 Z " fill="#756D2A" transform="translate(185,342)"/>
<path d="M0 0 C1.65 0.33 3.3 0.66 5 1 C4.34 2.32 3.68 3.64 3 5 C2.67 4.34 2.34 3.68 2 3 C1.01 2.67 0.02 2.34 -1 2 C-0.67 1.34 -0.34 0.68 0 0 Z " fill="#A9A052" transform="translate(315,344)"/>
<path d="M0 0 C0.66 0 1.32 0 2 0 C1.01 3.3 0.02 6.6 -1 10 C-1.33 10 -1.66 10 -2 10 C-2 7.69 -2 5.38 -2 3 C-1.34 3 -0.68 3 0 3 C0 2.01 0 1.02 0 0 Z " fill="#7B7237" transform="translate(232,329)"/>
<path d="M0 0 C0.66 0 1.32 0 2 0 C2.33 0.99 2.66 1.98 3 3 C1.35 4.32 -0.3 5.64 -2 7 C-2.33 6.01 -2.66 5.02 -3 4 C-2.34 3.34 -1.68 2.68 -1 2 C-0.67 1.34 -0.34 0.68 0 0 Z " fill="#7D752B" transform="translate(357,327)"/>
<path d="M0 0 C0.25 2.3125 0.25 2.3125 0 5 C-2 6.8125 -2 6.8125 -4 8 C-4.1875 5.125 -4.1875 5.125 -4 2 C-1 0 -1 0 0 0 Z " fill="#BCAD4D" transform="translate(266,321)"/>
<path d="M0 0 C1.26724763 3.80174289 0.4750819 5.3511132 -1 9 C-1.66 9.66 -2.32 10.32 -3 11 C-2.53199289 6.94393835 -2.12046792 3.53411321 0 0 Z " fill="#8D7C3F" transform="translate(235,304)"/>
<path d="M0 0 C0.66 0 1.32 0 2 0 C2 2.31 2 4.62 2 7 C1.34 7 0.68 7 0 7 C-0.38133299 5.0085944 -0.71325582 3.00720923 -1 1 C-0.67 0.67 -0.34 0.34 0 0 Z " fill="#AA9C40" transform="translate(86,302)"/>
<path d="M0 0 C0 1.65 0 3.3 0 5 C-1.65 5.33 -3.3 5.66 -5 6 C-4.6875 4.125 -4.6875 4.125 -4 2 C-1 0 -1 0 0 0 Z " fill="#BEA941" transform="translate(136,299)"/>
<path d="M0 0 C2.3431213 0.25561323 4.67843403 0.59270772 7 1 C7.33 1.66 7.66 2.32 8 3 C5.36 3 2.72 3 0 3 C0 2.01 0 1.02 0 0 Z " fill="#8D8A40" transform="translate(339,283)"/>
<path d="M0 0 C2.625 0.375 2.625 0.375 5 1 C4.01 2.485 4.01 2.485 3 4 C2.67 4.66 2.34 5.32 2 6 C1.67 5.01 1.34 4.02 1 3 C0.01 2.67 -0.98 2.34 -2 2 C-1.34 1.34 -0.68 0.68 0 0 Z " fill="#7A7136" transform="translate(342,285)"/>
</svg>
